<!--?xml version="1.0" encoding="UTF-8"?--><svg id="Layer_1" xmlns="http://www.w3.org/2000/svg" viewBox="0 0 1600 1600"><defs><style>.cls-1{fill:#028b34;}.cls-2{fill:#020202;}.cls-3{fill:#ffc044;}.cls-4{fill:#fe3456;}.cls-5{fill:#efe4b5;}.cls-6{fill:#4683ec;}.cls-7{fill:none;stroke-miterlimit:10;}.cls-7,.cls-8{stroke:#020202;stroke-width:1.70px;}.cls-8{fill:#fff;stroke-linecap:round;stroke-linejoin:round;}</style></defs><g id="pattern"><g><path class="cls-8" d="m517.75,424.54c-44.59,1.25-45.46,2.27-46.53,54.42-1.07-52.15-1.94-53.17-46.53-54.42,44.59-1.25,45.46-2.27,46.53-54.42,1.07,52.15,1.94,53.17,46.53,54.42Z"></path><path class="cls-8" d="m203.95,1197.68c-26.38.74-26.9,1.34-27.53,32.19-.63-30.85-1.15-31.45-27.53-32.19,26.38-.74,26.9-1.34,27.53-32.19.63,30.85,1.15,31.45,27.53,32.19Z"></path><path class="cls-8" d="m1451.11,1143.39c-26.38.74-26.9,1.34-27.53,32.19-.63-30.85-1.15-31.45-27.53-32.19,26.38-.74,26.9-1.34,27.53-32.19.63,30.85,1.15,31.45,27.53,32.19Z"></path><rect class="cls-4" x="365.66" y="994.27" width="18.19" height="18.19" transform="translate(667.28 -26.98) rotate(36.33)"></rect><rect class="cls-1" x="352.43" y="788.69" width="13.52" height="13.52" transform="translate(816.65 52.15) rotate(55.91)"></rect><rect class="cls-1" x="985.36" y="705.35" width="13.52" height="13.52" transform="translate(1025.82 -508.66) rotate(55.91)"></rect><rect class="cls-6" x="583.94" y="449.87" width="9.09" height="9.09" transform="translate(383.61 -260.32) rotate(36.33)"></rect><rect class="cls-3" x="266.15" y="884.62" width="9.09" height="9.09" transform="translate(805.74 1649.19) rotate(161.79)"></rect><rect class="cls-3" x="951.11" y="832.77" width="9.09" height="9.09" transform="translate(2125.13 1334) rotate(161.79)"></rect><rect class="cls-4" x="1068.17" y="795.48" width="8.68" height="8.68" transform="translate(2341.27 1224.36) rotate(161.79)"></rect><rect class="cls-3" x="641.8" y="492.41" width="9.09" height="9.09" transform="translate(1415.64 767.01) rotate(161.79)"></rect></g></g><g id="laptop"><g><g><path class="cls-2" d="m218.71,706.46l6.61,29.91,55.34,251.05,8.62,39.03c2.14,9.67,10.73,16.6,20.67,16.6h521.27c13.5,0,30.36,18.11,27.45,4.92l-13.42-60.55-55.34-251.05-8.61-39.03c-2.14-9.7-10.73-16.6-20.67-16.6H239.34c-13.5,0-23.55,12.5-20.64,25.71Z"></path><g id="Chatbox"><g><g><path class="cls-8" d="m560.5,819.12h-161.35l-11.72-36.73h161.35c2.41,0,5,1.96,5.77,4.37l8.93,27.98c.77,2.41-.56,4.37-2.98,4.37Z"></path><ellipse class="cls-6" cx="369.8" cy="800.76" rx="31.49" ry="43.26" transform="translate(-479.4 562.38) rotate(-49.53)"></ellipse></g><g><path class="cls-8" d="m507.59,873.32h161.35l-11.72-36.73h-161.35c-2.41,0-3.75,1.96-2.98,4.37l8.93,27.98c.77,2.41,3.35,4.37,5.77,4.37Z"></path><ellipse class="cls-4" cx="686.57" cy="854.96" rx="31.49" ry="43.26" transform="translate(-409.45 822.39) rotate(-49.53)"></ellipse></g><g><path class="cls-8" d="m595.08,927.52h-161.35l-11.72-36.73h161.35c2.41,0,5,1.96,5.77,4.37l8.93,27.98c.77,2.41-.56,4.37-2.98,4.37Z"></path><ellipse class="cls-4" cx="404.38" cy="909.15" rx="31.49" ry="43.26" transform="translate(-549.73 626.73) rotate(-49.53)"></ellipse></g><g><path class="cls-8" d="m542.17,981.72h161.35l-11.72-36.73h-161.35c-2.41,0-3.75,1.96-2.98,4.37l8.93,27.98c.77,2.41,3.35,4.37,5.77,4.37Z"></path><ellipse class="cls-6" cx="721.15" cy="963.35" rx="31.49" ry="43.26" transform="translate(-479.78 886.74) rotate(-49.53)"></ellipse></g></g></g><path class="cls-6" d="m218.71,706.46l6.61,29.91h564.58s-8.61-39.03-8.61-39.03c-2.14-9.7-10.73-16.6-20.67-16.6H239.34c-13.5,0-23.55,12.5-20.64,25.71Z"></path><path class="cls-6" d="m218.71,706.46l6.6,29.92,55.34,251.05,8.62,39.03c2.13,9.66,10.73,16.6,20.65,16.6h20.37c-9.95,0-18.53-6.94-20.68-16.6l-8.6-39.03-55.34-251.05-6.6-29.92c-2.93-13.21,7.11-25.71,20.63-25.71h-20.37c-13.5,0-23.54,12.5-20.63,25.71Z"></path></g><path class="cls-6" d="m1027.36,1031.76H291.21s7.34,34.62,7.34,34.62c1.24,5.84,6.4,10.02,12.37,10.02h716.44c14.56,0,25.22-13.71,21.63-27.81h0c-2.51-9.9-11.42-16.82-21.63-16.82Z"></path></g></g><g><g><g><circle class="cls-5" cx="825.67" cy="960.63" r="17.65"></circle><path class="cls-5" d="m810.74,970.05c24.5,44.06,58.13,25.43,58.13,25.43l-28.38-44.43-29.76,19Z"></path></g><g><circle class="cls-5" cx="841.95" cy="774.94" r="43.75"></circle><path class="cls-5" d="m778.02,902.11l-31.74-21.78h0c17.48-41.07,30.59-57.54,53.7-117.81l64.53,49.91s-55.92,40.18-86.5,89.68Z"></path></g><g><circle class="cls-5" cx="760.87" cy="889.1" r="19.25"></circle><path class="cls-5" d="m841.07,953.72s-14.17,24.71-32.77,12.94c0,0-26.23-38.94-61.58-64.51l28.29-26.1.02.02c41.47,40.81,62.16,62.43,66.04,77.65Z"></path><ellipse class="cls-5" cx="788.66" cy="913.49" rx="31.4" ry="41.58" transform="translate(-410.42 776.91) rotate(-42.7)"></ellipse></g></g><g><g><circle class="cls-2" cx="1113.03" cy="830.96" r="50.39"></circle><path class="cls-2" d="m1240.3,960.2c-7.79,11.81-25.51,16.06-34.58,17.49-10.29-18.68-29.66-38.01-60.4-60.89-30.18-22.47-53.68-28.12-71.24-53.23,20.46-62.16,70.18-47.33,89.69-38.64-3.78,81.84,9.76,64.14,70.9,127.37,2.26,2.35,4.16,5,5.63,7.89Z"></path></g><g><path class="cls-2" d="m1163.77,824.94c-19.51-8.69-69.23-23.53-89.69,38.64-13.04-18.65-22.96-58.63-29.12-68.19-14.44-22.42-16.2-122.24,66.47-111.01,0,0,58.58,7.37,52.68,104.19-.27,4.43-.16,32.31-.35,36.36Z"></path><circle class="cls-2" cx="1080.88" cy="691.69" r="16.74"></circle></g><g><circle class="cls-2" cx="1213.32" cy="1065.99" r="17.65"></circle><path class="cls-2" d="m1213.29,1048.34c-50.33-2.98-52.65,35.4-52.65,35.4l52.72-.1-.07-35.31Z"></path></g><g><g><path class="cls-2" d="m1228.32,1072s-12.91,14.95-35,5.99c-22.08-8.95,18.79-27.65,21.36-60.46,1.06-13.64-1.64-26.57-8.96-39.84,9.06-1.44,26.79-5.68,34.58-17.49,1.07,2.12,1.91,4.34,2.49,6.67,4.93,19.66,13.17,68.62-14.47,105.13Z"></path><circle class="cls-2" cx="1223.55" cy="969.69" r="19.25"></circle></g><ellipse class="cls-2" cx="1223.91" cy="988.98" rx="49.15" ry="65.09" transform="translate(-6.89 8.58) rotate(-.4)"></ellipse></g></g><g><g><circle class="cls-5" cx="784.03" cy="568.62" r="36.39"></circle><path class="cls-5" d="m791.42,604.47s-81.37,31.77-93.44,23.24c-2.78-1.96-4.96-4.32-6.67-6.76-2.04-2.92-3.45-5.98-4.49-8.66-2.38-6.07-.56-12.95,4.54-17.02l1.45-1.15,6.17-4.92,60.68-48.33c63.76,6.31,31.76,63.6,31.76,63.6Z"></path><ellipse class="cls-2" cx="762.65" cy="567.51" rx="4.17" ry="6.02" transform="translate(-137.35 261.4) rotate(-17.87)"></ellipse><path class="cls-2" d="m700.3,602.36c2.24,6.95-1.69,14.63-8.99,18.59-2.04-2.92-3.45-5.98-4.49-8.66-2.38-6.07-.56-12.95,4.54-17.02l1.45-1.15c3.55,1.69,6.29,4.53,7.49,8.24Z"></path></g><path class="cls-7" d="m696.24,626.36s9.78,0,17.11-11.02"></path></g><g><path class="cls-5" d="m990.41,672.69c-54.2,9.53-95.98-65.45-95.98-65.45-35,28.57-83.65,20.46-83.65,20.46,0,0-54.73,110.18-5.03,167.86,55.53,64.45,151.6,7.43,194.98-15.3,1.66-.87,5.84-2.72,10.33-3.9.05-3.14-19.07-103.95-20.65-103.67Z"></path><circle class="cls-5" cx="998.56" cy="724.88" r="52.96"></circle></g><path class="cls-5" d="m1122.8,796.83c70.93.58,88.19-99.14,21.3-122.73-11.53-4.07-25.5-7.45-42.52-9.83-27.08-3.78-54.41-1.4-105.64,7.45,2.94,34.07,19.05,101.92,19.02,103.52,25.9-10.59,48.17-1.2,61.23,7.32,13.15,8.58,28.29,13.75,43.99,14.21.88.03,1.75.04,2.62.05Z"></path><circle class="cls-5" cx="998.56" cy="724.88" r="52.96"></circle><g><g><circle class="cls-5" cx="1152.58" cy="687.24" r="9.11"></circle><path class="cls-5" d="m1178.46,643.35c-24.6,23.71-32.42,37.56-32.42,37.56l14.18,11.4s11.82-21.97,30.43-35.48l-12.18-13.49Z"></path><path class="cls-5" d="m1160.21,692.31s11.82-21.97,30.43-35.48l-12.18-13.49c-24.6,23.71-32.42,37.56-32.42,37.56l14.18,11.4Z"></path><path class="cls-2" d="m1178.46,643.35c-2.67,2.57-6.68,6.64-9.64,9.69-.45.47-1.28,1.32-1.28,1.32,0,0,.45,8.64,7.63,16.89,4.03-4.43,10.27-10.64,15.47-14.41l-12.18-13.49Z"></path></g><g><circle class="cls-5" cx="1184.13" cy="650.47" r="9.11"></circle><circle class="cls-5" cx="1208.2" cy="623.42" r="45.52"></circle></g></g><g><circle class="cls-5" cx="855.17" cy="624.54" r="43.71"></circle><path class="cls-5" d="m884.83,592.52s-21.55-47.69-53.06-69.35c-7.09-4.87-15.44-7.96-30.1-4.72s-27.03,11.53-38.97,20.3l28.71,65.72s16.12,16.85,24.06,39.11l69.35-51.06Z"></path></g><g><g><circle class="cls-5" cx="1161.87" cy="831.07" r="50.39"></circle><path class="cls-5" d="m1289.13,960.31c-7.79,11.81-25.51,16.06-34.58,17.49-10.29-18.68-29.66-38.01-60.4-60.89-30.18-22.47-53.68-28.12-71.24-53.23,20.46-62.16,70.18-47.33,89.69-38.64-3.78,81.84,9.76,64.14,70.9,127.37,2.26,2.35,4.16,5,5.63,7.89Z"></path></g><g><path class="cls-5" d="m1212.6,825.05c-19.51-8.69-69.23-23.53-89.69,38.64-13.04-18.65-22.96-58.63-29.12-68.19-14.44-22.42-16.2-122.24,66.47-111.01,0,0,58.58,7.37,52.68,104.19-.27,4.43-.16,32.31-.35,36.36Z"></path><circle class="cls-5" cx="1129.72" cy="691.8" r="16.74"></circle></g><g><circle class="cls-5" cx="1262.13" cy="1066.09" r="17.65"></circle><path class="cls-5" d="m1262.48,1048.44c-50.25-4.06-53.4,34.27-53.4,34.27l52.71,1.03.69-35.3Z"></path></g><g><g><path class="cls-5" d="m1277.16,1072.11s-12.91,14.95-35,5.99c-22.08-8.95,18.79-27.65,21.36-60.46,1.06-13.64-1.64-26.57-8.96-39.84,9.06-1.44,26.79-5.68,34.58-17.49,1.07,2.12,1.91,4.34,2.49,6.67,4.93,19.66,13.17,68.62-14.47,105.13Z"></path><circle class="cls-5" cx="1272.38" cy="969.8" r="19.25"></circle></g><ellipse class="cls-5" cx="1272.75" cy="989.09" rx="49.15" ry="65.09" transform="translate(-6.89 8.92) rotate(-.4)"></ellipse></g></g><g><g><circle class="cls-5" cx="910.49" cy="1013.07" r="17.65"></circle><path class="cls-5" d="m910.17,995.42c-50.38-1.88-51.87,36.55-51.87,36.55l52.71-1.25-.84-35.3Z"></path></g><g><circle class="cls-5" cx="875.68" cy="777.97" r="43.75"></circle><path class="cls-5" d="m916.45,914.35l-38.03,5.94h0c-15.46-41.87-17.23-62.86-41.78-122.55l81.18-7.98s-13.1,67.6-1.37,124.59Z"></path></g><g><circle class="cls-5" cx="897.43" cy="917.32" r="19.25"></circle><path class="cls-5" d="m928.09,1015.65s-25.53,12.64-34.43-7.49c0,0-.12-46.95-15.25-87.88l38.03-5.94v.03c11.74,56.99,16.89,86.47,11.64,101.27Z"></path><ellipse class="cls-5" cx="906.94" cy="953.04" rx="31.4" ry="41.58" transform="translate(-136.11 151.25) rotate(-8.87)"></ellipse></g></g><g><path class="cls-5" d="m780.4,447.65s-70.31,11.92-72.88,78.94c-2.57,67.02,86.61,16.92,96.94,9.11,10.33-7.81,27.69-24.96,40.85-24.15,13.16.81,22.95-20.1,7.85-39.43-15.1-19.32-33.63-29.43-72.76-24.47Z"></path><path class="cls-7" d="m723.33,558.89c33.46,10.51,55.76-37.79,98.42-38.05"></path></g><g><path class="cls-5" d="m819.05,515.28s-24.49,26.39-1.31,72.05c22.7,44.7,69.13,81.36,119.33,29.52,50.2-51.84-29.36-101.84-50.31-109.51-20.48-7.5-44.69-16.86-67.71,7.94Z"></path><path class="cls-7" d="m807.97,544.47c1.7,15.03,7.91,44.12,20.31,60.47,28.33,37.35,61.15,58.9,108.79,11.92"></path><circle class="cls-5" cx="841.24" cy="529.86" r="19.86"></circle></g></g></svg>