<?xml version="1.0" encoding="UTF-8"?>
<svg id="Layer_1" xmlns="http://www.w3.org/2000/svg" viewBox="0 0 1286.31 604.28">
<style>
svg rect {
    fill: none;
}
svg rect:nth-child(337n) { animation: flicker 12s linear infinite; animation-delay: -4s; }
svg rect:nth-child(421n) { animation: flicker 11s linear infinite; animation-delay: -7s; }
svg rect:nth-child(536n) { animation: flicker 18s linear infinite; animation-delay: -3s; }
svg rect:nth-child(654n) { animation: flicker 25s linear infinite; animation-delay: -15s; }
svg rect:nth-child(798n) { animation: flicker 12s linear infinite; animation-delay: -8s; }
svg rect:nth-child(867n) { animation: flicker 28s linear infinite; animation-delay: -13s; }
svg rect:nth-child(945n) { animation: flicker 15s linear infinite; animation-delay: -10s; }
svg rect:nth-child(412n) { animation: flicker 20s linear infinite; animation-delay: -5s; }
svg rect:nth-child(673n) { animation: flicker 14s linear infinite; animation-delay: -11s; }
svg rect:nth-child(729n) { animation: flicker 23s linear infinite; animation-delay: -14s; }
svg rect:nth-child(822n) { animation: flicker 27s linear infinite; animation-delay: -9s; }
svg rect:nth-child(911n) { animation: flicker 19s linear infinite; animation-delay: -6s; }
svg rect:nth-child(487n) { animation: flicker 17s linear infinite; animation-delay: -4s; }
svg rect:nth-child(598n) { animation: flicker 24s linear infinite; animation-delay: -12s; }
svg rect:nth-child(726n) { animation: flicker 22s linear infinite; animation-delay: -8s; }
svg rect:nth-child(812n) { animation: flicker 21s linear infinite; animation-delay: -10s; }
svg rect:nth-child(349n) { animation: flicker 16s linear infinite; animation-delay: -7s; }
svg rect:nth-child(411n) { animation: flicker 10s linear infinite; animation-delay: -3s; }
svg rect:nth-child(563n) { animation: flicker 18s linear infinite; animation-delay: -5s; }
svg rect:nth-child(639n) { animation: flicker 30s linear infinite; animation-delay: -14s; }
svg rect:nth-child(712n) { animation: flicker 14s linear infinite; animation-delay: -9s; }
svg rect:nth-child(890n) { animation: flicker 26s linear infinite; animation-delay: -13s; }
svg rect:nth-child(964n) { animation: flicker 20s linear infinite; animation-delay: -11s; }
svg rect:nth-child(476n) { animation: flicker 11s linear infinite; animation-delay: -6s; }
svg rect:nth-child(556n) { animation: flicker 19s linear infinite; animation-delay: -7s; }
svg rect:nth-child(634n) { animation: flicker 22s linear infinite; animation-delay: -12s; }
svg rect:nth-child(735n) { animation: flicker 25s linear infinite; animation-delay: -14s; }
svg rect:nth-child(859n) { animation: flicker 13s linear infinite; animation-delay: -4s; }
svg rect:nth-child(942n) { animation: flicker 28s linear infinite; animation-delay: -15s; }

@keyframes flicker {
    0% { fill: none; }
    79.99% { fill: none; }
    80% { fill: #ea5c1faa; }
    96% { fill: #ea5c1faa; }
    100% { fill: #fff0; }
}
</style>
<rect x="350.11" y="596.9" width="6.23" height="7.38"/>
<rect x="339.17" y="596.9" width="6.23" height="7.38"/>
<rect x="339.17" y="583.92" width="6.23" height="7.38"/>
<rect x="328.22" y="583.92" width="6.23" height="7.38"/>
<rect x="350.11" y="570.95" width="6.23" height="7.38"/>
<rect x="339.17" y="570.95" width="6.23" height="7.38"/>
<rect x="328.22" y="570.95" width="6.23" height="7.38"/>
<rect x="1225.37" y="557.97" width="6.23" height="7.38"/>
<rect x="350.11" y="557.97" width="6.23" height="7.38"/>
<rect x="339.17" y="557.97" width="6.23" height="7.38"/>
<rect x="1236.31" y="544.99" width="6.23" height="7.38"/>
<rect x="1137.85" y="544.99" width="6.23" height="7.38"/>
<rect x="361.05" y="544.99" width="6.23" height="7.38"/>
<rect x="350.11" y="544.99" width="6.23" height="7.38"/>
<rect x="339.17" y="544.99" width="6.23" height="7.38"/>
<rect x="1247.25" y="532.02" width="6.23" height="7.38"/>
<rect x="1137.85" y="532.02" width="6.23" height="7.38"/>
<rect x="1126.91" y="532.02" width="6.23" height="7.38"/>
<rect x="382.93" y="532.02" width="6.23" height="7.38"/>
<rect x="371.99" y="532.02" width="6.23" height="7.38"/>
<rect x="361.05" y="532.02" width="6.23" height="7.38"/>
<rect x="350.11" y="532.02" width="6.23" height="7.38"/>
<rect x="339.17" y="532.02" width="6.23" height="7.38"/>
<rect x="1148.79" y="519.04" width="6.23" height="7.38"/>
<rect x="1137.85" y="519.04" width="6.23" height="7.38"/>
<rect x="1126.91" y="519.04" width="6.23" height="7.38"/>
<rect x="1115.96" y="519.04" width="6.23" height="7.38"/>
<rect x="393.87" y="519.04" width="6.23" height="7.38"/>
<rect x="382.93" y="519.04" width="6.23" height="7.38"/>
<rect x="371.99" y="519.04" width="6.23" height="7.38"/>
<rect x="361.05" y="519.04" width="6.23" height="7.38"/>
<rect x="350.11" y="519.04" width="6.23" height="7.38"/>
<rect x="339.17" y="519.04" width="6.23" height="7.38"/>
<rect x="1148.79" y="506.07" width="6.23" height="7.38"/>
<rect x="1137.85" y="506.07" width="6.23" height="7.38"/>
<rect x="1126.91" y="506.07" width="6.23" height="7.38"/>
<rect x="1115.96" y="506.07" width="6.23" height="7.38"/>
<rect x="1105.02" y="506.07" width="6.23" height="7.38"/>
<rect x="1050.32" y="506.07" width="6.23" height="7.38"/>
<rect x="1039.38" y="506.07" width="6.23" height="7.38"/>
<rect x="1028.44" y="506.07" width="6.23" height="7.38"/>
<rect x="700.21" y="506.07" width="6.23" height="7.38"/>
<rect x="689.27" y="506.07" width="6.23" height="7.38"/>
<rect x="678.33" y="506.07" width="6.23" height="7.38"/>
<rect x="404.81" y="506.07" width="6.23" height="7.38"/>
<rect x="393.87" y="506.07" width="6.23" height="7.38"/>
<rect x="382.93" y="506.07" width="6.23" height="7.38"/>
<rect x="371.99" y="506.07" width="6.23" height="7.38"/>
<rect x="361.05" y="506.07" width="6.23" height="7.38"/>
<rect x="350.11" y="506.07" width="6.23" height="7.38"/>
<rect x="339.17" y="506.07" width="6.23" height="7.38"/>
<rect x="1159.73" y="493.09" width="6.23" height="7.38"/>
<rect x="1148.79" y="493.09" width="6.23" height="7.38"/>
<rect x="1137.85" y="493.09" width="6.23" height="7.38"/>
<rect x="1126.91" y="493.09" width="6.23" height="7.38"/>
<rect x="1115.96" y="493.09" width="6.23" height="7.38"/>
<rect x="1105.02" y="493.09" width="6.23" height="7.38"/>
<rect x="1094.08" y="493.09" width="6.23" height="7.38"/>
<rect x="1083.14" y="493.09" width="6.23" height="7.38"/>
<rect x="1072.2" y="493.09" width="6.23" height="7.38"/>
<rect x="1061.26" y="493.09" width="6.23" height="7.38"/>
<rect x="1050.32" y="493.09" width="6.23" height="7.38"/>
<rect x="1039.38" y="493.09" width="6.23" height="7.38"/>
<rect x="1028.44" y="493.09" width="6.23" height="7.38"/>
<rect x="711.15" y="493.09" width="6.23" height="7.38"/>
<rect x="700.21" y="493.09" width="6.23" height="7.38"/>
<rect x="689.27" y="493.09" width="6.23" height="7.38"/>
<rect x="678.33" y="493.09" width="6.23" height="7.38"/>
<rect x="667.39" y="493.09" width="6.23" height="7.38"/>
<rect x="415.75" y="493.09" width="6.23" height="7.38"/>
<rect x="404.81" y="493.09" width="6.23" height="7.38"/>
<rect x="393.87" y="493.09" width="6.23" height="7.38"/>
<rect x="382.93" y="493.09" width="6.23" height="7.38"/>
<rect x="371.99" y="493.09" width="6.23" height="7.38"/>
<rect x="361.05" y="493.09" width="6.23" height="7.38"/>
<rect x="350.11" y="493.09" width="6.23" height="7.38"/>
<rect x="1159.73" y="480.11" width="6.23" height="7.38"/>
<rect x="1148.79" y="480.11" width="6.23" height="7.38"/>
<rect x="1137.85" y="480.11" width="6.23" height="7.38"/>
<rect x="1126.91" y="480.11" width="6.23" height="7.38"/>
<rect x="1115.96" y="480.11" width="6.23" height="7.38"/>
<rect x="1105.02" y="480.11" width="6.23" height="7.38"/>
<rect x="1094.08" y="480.11" width="6.23" height="7.38"/>
<rect x="1083.14" y="480.11" width="6.23" height="7.38"/>
<rect x="1072.2" y="480.11" width="6.23" height="7.38"/>
<rect x="1061.26" y="480.11" width="6.23" height="7.38"/>
<rect x="1050.32" y="480.11" width="6.23" height="7.38"/>
<rect x="1039.38" y="480.11" width="6.23" height="7.38"/>
<rect x="1028.44" y="480.11" width="6.23" height="7.38"/>
<rect x="711.15" y="480.11" width="6.23" height="7.38"/>
<rect x="700.21" y="480.11" width="6.23" height="7.38"/>
<rect x="689.27" y="480.11" width="6.23" height="7.38"/>
<rect x="678.33" y="480.11" width="6.23" height="7.38"/>
<rect x="667.39" y="480.11" width="6.23" height="7.38"/>
<rect x="415.75" y="480.11" width="6.23" height="7.38"/>
<rect x="404.81" y="480.11" width="6.23" height="7.38"/>
<rect x="393.87" y="480.11" width="6.23" height="7.38"/>
<rect x="382.93" y="480.11" width="6.23" height="7.38"/>
<rect x="371.99" y="480.11" width="6.23" height="7.38"/>
<rect x="361.05" y="480.11" width="6.23" height="7.38"/>
<rect x="350.11" y="480.11" width="6.23" height="7.38"/>
<rect x="1148.79" y="467.14" width="6.23" height="7.38"/>
<rect x="1137.85" y="467.14" width="6.23" height="7.38"/>
<rect x="1126.91" y="467.14" width="6.23" height="7.38"/>
<rect x="1115.96" y="467.14" width="6.23" height="7.38"/>
<rect x="1105.02" y="467.14" width="6.23" height="7.38"/>
<rect x="1094.08" y="467.14" width="6.23" height="7.38"/>
<rect x="1083.14" y="467.14" width="6.23" height="7.38"/>
<rect x="1072.2" y="467.14" width="6.23" height="7.38"/>
<rect x="1061.26" y="467.14" width="6.23" height="7.38"/>
<rect x="1050.32" y="467.14" width="6.23" height="7.38"/>
<rect x="1039.38" y="467.14" width="6.23" height="7.38"/>
<rect x="1028.44" y="467.14" width="6.23" height="7.38"/>
<rect x="765.86" y="467.14" width="6.23" height="7.38"/>
<rect x="722.09" y="467.14" width="6.23" height="7.38"/>
<rect x="711.15" y="467.14" width="6.23" height="7.38"/>
<rect x="700.21" y="467.14" width="6.23" height="7.38"/>
<rect x="689.27" y="467.14" width="6.23" height="7.38"/>
<rect x="678.33" y="467.14" width="6.23" height="7.38"/>
<rect x="667.39" y="467.14" width="6.23" height="7.38"/>
<rect x="426.69" y="467.14" width="6.23" height="7.38"/>
<rect x="415.75" y="467.14" width="6.23" height="7.38"/>
<rect x="404.81" y="467.14" width="6.23" height="7.38"/>
<rect x="393.87" y="467.14" width="6.23" height="7.38"/>
<rect x="382.93" y="467.14" width="6.23" height="7.38"/>
<rect x="371.99" y="467.14" width="6.23" height="7.38"/>
<rect x="361.05" y="467.14" width="6.23" height="7.38"/>
<rect x="350.11" y="467.14" width="6.23" height="7.38"/>
<rect x="1137.85" y="454.16" width="6.23" height="7.38"/>
<rect x="1126.91" y="454.16" width="6.23" height="7.38"/>
<rect x="1115.96" y="454.16" width="6.23" height="7.38"/>
<rect x="1105.02" y="454.16" width="6.23" height="7.38"/>
<rect x="1094.08" y="454.16" width="6.23" height="7.38"/>
<rect x="1083.14" y="454.16" width="6.23" height="7.38"/>
<rect x="1072.2" y="454.16" width="6.23" height="7.38"/>
<rect x="1061.26" y="454.16" width="6.23" height="7.38"/>
<rect x="1050.32" y="454.16" width="6.23" height="7.38"/>
<rect x="1039.38" y="454.16" width="6.23" height="7.38"/>
<rect x="1028.44" y="454.16" width="6.23" height="7.38"/>
<rect x="765.86" y="454.16" width="6.23" height="7.38"/>
<rect x="722.09" y="454.16" width="6.23" height="7.38"/>
<rect x="711.15" y="454.16" width="6.23" height="7.38"/>
<rect x="700.21" y="454.16" width="6.23" height="7.38"/>
<rect x="689.27" y="454.16" width="6.23" height="7.38"/>
<rect x="678.33" y="454.16" width="6.23" height="7.38"/>
<rect x="667.39" y="454.16" width="6.23" height="7.38"/>
<rect x="656.45" y="454.16" width="6.23" height="7.38"/>
<rect x="448.57" y="454.16" width="6.23" height="7.38"/>
<rect x="437.63" y="454.16" width="6.23" height="7.38"/>
<rect x="426.69" y="454.16" width="6.23" height="7.38"/>
<rect x="415.75" y="454.16" width="6.23" height="7.38"/>
<rect x="404.81" y="454.16" width="6.23" height="7.38"/>
<rect x="393.87" y="454.16" width="6.23" height="7.38"/>
<rect x="382.93" y="454.16" width="6.23" height="7.38"/>
<rect x="371.99" y="454.16" width="6.23" height="7.38"/>
<rect x="361.05" y="454.16" width="6.23" height="7.38"/>
<rect x="350.11" y="454.16" width="6.23" height="7.38"/>
<rect x="1126.91" y="441.19" width="6.23" height="7.38"/>
<rect x="1115.96" y="441.19" width="6.23" height="7.38"/>
<rect x="1105.02" y="441.19" width="6.23" height="7.38"/>
<rect x="1094.08" y="441.19" width="6.23" height="7.38"/>
<rect x="1083.14" y="441.19" width="6.23" height="7.38"/>
<rect x="1072.2" y="441.19" width="6.23" height="7.38"/>
<rect x="1061.26" y="441.19" width="6.23" height="7.38"/>
<rect x="776.8" y="441.19" width="6.23" height="7.38"/>
<rect x="765.86" y="441.19" width="6.23" height="7.38"/>
<rect x="733.04" y="441.19" width="6.23" height="7.38"/>
<rect x="722.09" y="441.19" width="6.23" height="7.38"/>
<rect x="711.15" y="441.19" width="6.23" height="7.38"/>
<rect x="700.21" y="441.19" width="6.23" height="7.38"/>
<rect x="689.27" y="441.19" width="6.23" height="7.38"/>
<rect x="678.33" y="441.19" width="6.23" height="7.38"/>
<rect x="667.39" y="441.19" width="6.23" height="7.38"/>
<rect x="656.45" y="441.19" width="6.23" height="7.38"/>
<rect x="645.51" y="441.19" width="6.23" height="7.38"/>
<rect x="448.57" y="441.19" width="6.23" height="7.38"/>
<rect x="437.63" y="441.19" width="6.23" height="7.38"/>
<rect x="426.69" y="441.19" width="6.23" height="7.38"/>
<rect x="415.75" y="441.19" width="6.23" height="7.38"/>
<rect x="404.81" y="441.19" width="6.23" height="7.38"/>
<rect x="393.87" y="441.19" width="6.23" height="7.38"/>
<rect x="382.93" y="441.19" width="6.23" height="7.38"/>
<rect x="371.99" y="441.19" width="6.23" height="7.38"/>
<rect x="361.05" y="441.19" width="6.23" height="7.38"/>
<rect x="350.11" y="441.19" width="6.23" height="7.38"/>
<rect x="1126.91" y="428.21" width="6.23" height="7.38"/>
<rect x="1094.08" y="428.21" width="6.23" height="7.38"/>
<rect x="1083.14" y="428.21" width="6.23" height="7.38"/>
<rect x="1072.2" y="428.21" width="6.23" height="7.38"/>
<rect x="1061.26" y="428.21" width="6.23" height="7.38"/>
<rect x="776.8" y="428.21" width="6.23" height="7.38"/>
<rect x="743.98" y="428.21" width="6.23" height="7.38"/>
<rect x="733.04" y="428.21" width="6.23" height="7.38"/>
<rect x="722.09" y="428.21" width="6.23" height="7.38"/>
<rect x="711.15" y="428.21" width="6.23" height="7.38"/>
<rect x="700.21" y="428.21" width="6.23" height="7.38"/>
<rect x="689.27" y="428.21" width="6.23" height="7.38"/>
<rect x="678.33" y="428.21" width="6.23" height="7.38"/>
<rect x="667.39" y="428.21" width="6.23" height="7.38"/>
<rect x="656.45" y="428.21" width="6.23" height="7.38"/>
<rect x="645.51" y="428.21" width="6.23" height="7.38"/>
<rect x="448.57" y="428.21" width="6.23" height="7.38"/>
<rect x="437.63" y="428.21" width="6.23" height="7.38"/>
<rect x="426.69" y="428.21" width="6.23" height="7.38"/>
<rect x="415.75" y="428.21" width="6.23" height="7.38"/>
<rect x="404.81" y="428.21" width="6.23" height="7.38"/>
<rect x="393.87" y="428.21" width="6.23" height="7.38"/>
<rect x="382.93" y="428.21" width="6.23" height="7.38"/>
<rect x="371.99" y="428.21" width="6.23" height="7.38"/>
<rect x="361.05" y="428.21" width="6.23" height="7.38"/>
<rect x="350.11" y="428.21" width="6.23" height="7.38"/>
<rect x="339.17" y="428.21" width="6.23" height="7.38"/>
<rect x="328.22" y="428.21" width="6.23" height="7.38"/>
<rect x="1126.91" y="415.23" width="6.23" height="7.38"/>
<rect x="1094.08" y="415.23" width="6.23" height="7.38"/>
<rect x="743.98" y="415.23" width="6.23" height="7.38"/>
<rect x="733.04" y="415.23" width="6.23" height="7.38"/>
<rect x="722.09" y="415.23" width="6.23" height="7.38"/>
<rect x="711.15" y="415.23" width="6.23" height="7.38"/>
<rect x="700.21" y="415.23" width="6.23" height="7.38"/>
<rect x="689.27" y="415.23" width="6.23" height="7.38"/>
<rect x="678.33" y="415.23" width="6.23" height="7.38"/>
<rect x="667.39" y="415.23" width="6.23" height="7.38"/>
<rect x="656.45" y="415.23" width="6.23" height="7.38"/>
<rect x="459.51" y="415.23" width="6.23" height="7.38"/>
<rect x="448.57" y="415.23" width="6.23" height="7.38"/>
<rect x="437.63" y="415.23" width="6.23" height="7.38"/>
<rect x="426.69" y="415.23" width="6.23" height="7.38"/>
<rect x="415.75" y="415.23" width="6.23" height="7.38"/>
<rect x="404.81" y="415.23" width="6.23" height="7.38"/>
<rect x="393.87" y="415.23" width="6.23" height="7.38"/>
<rect x="382.93" y="415.23" width="6.23" height="7.38"/>
<rect x="371.99" y="415.23" width="6.23" height="7.38"/>
<rect x="361.05" y="415.23" width="6.23" height="7.38"/>
<rect x="350.11" y="415.23" width="6.23" height="7.38"/>
<rect x="339.17" y="415.23" width="6.23" height="7.38"/>
<rect x="328.22" y="415.23" width="6.23" height="7.38"/>
<rect x="1061.26" y="402.26" width="6.23" height="7.38"/>
<rect x="743.98" y="402.26" width="6.23" height="7.38"/>
<rect x="733.04" y="402.26" width="6.23" height="7.38"/>
<rect x="722.09" y="402.26" width="6.23" height="7.38"/>
<rect x="711.15" y="402.26" width="6.23" height="7.38"/>
<rect x="700.21" y="402.26" width="6.23" height="7.38"/>
<rect x="689.27" y="402.26" width="6.23" height="7.38"/>
<rect x="678.33" y="402.26" width="6.23" height="7.38"/>
<rect x="667.39" y="402.26" width="6.23" height="7.38"/>
<rect x="656.45" y="402.26" width="6.23" height="7.38"/>
<rect x="459.51" y="402.26" width="6.23" height="7.38"/>
<rect x="448.57" y="402.26" width="6.23" height="7.38"/>
<rect x="437.63" y="402.26" width="6.23" height="7.38"/>
<rect x="426.69" y="402.26" width="6.23" height="7.38"/>
<rect x="415.75" y="402.26" width="6.23" height="7.38"/>
<rect x="404.81" y="402.26" width="6.23" height="7.38"/>
<rect x="393.87" y="402.26" width="6.23" height="7.38"/>
<rect x="382.93" y="402.26" width="6.23" height="7.38"/>
<rect x="371.99" y="402.26" width="6.23" height="7.38"/>
<rect x="361.05" y="402.26" width="6.23" height="7.38"/>
<rect x="350.11" y="402.26" width="6.23" height="7.38"/>
<rect x="339.17" y="402.26" width="6.23" height="7.38"/>
<rect x="328.22" y="402.26" width="6.23" height="7.38"/>
<rect x="317.28" y="402.26" width="6.23" height="7.38"/>
<rect x="1126.91" y="389.28" width="6.23" height="7.38"/>
<rect x="1115.96" y="389.28" width="6.23" height="7.38"/>
<rect x="743.98" y="389.28" width="6.23" height="7.38"/>
<rect x="733.04" y="389.28" width="6.23" height="7.38"/>
<rect x="722.09" y="389.28" width="6.23" height="7.38"/>
<rect x="711.15" y="389.28" width="6.23" height="7.38"/>
<rect x="700.21" y="389.28" width="6.23" height="7.38"/>
<rect x="689.27" y="389.28" width="6.23" height="7.38"/>
<rect x="678.33" y="389.28" width="6.23" height="7.38"/>
<rect x="667.39" y="389.28" width="6.23" height="7.38"/>
<rect x="656.45" y="389.28" width="6.23" height="7.38"/>
<rect x="645.51" y="389.28" width="6.23" height="7.38"/>
<rect x="459.51" y="389.28" width="6.23" height="7.38"/>
<rect x="448.57" y="389.28" width="6.23" height="7.38"/>
<rect x="437.63" y="389.28" width="6.23" height="7.38"/>
<rect x="426.69" y="389.28" width="6.23" height="7.38"/>
<rect x="415.75" y="389.28" width="6.23" height="7.38"/>
<rect x="404.81" y="389.28" width="6.23" height="7.38"/>
<rect x="393.87" y="389.28" width="6.23" height="7.38"/>
<rect x="382.93" y="389.28" width="6.23" height="7.38"/>
<rect x="371.99" y="389.28" width="6.23" height="7.38"/>
<rect x="361.05" y="389.28" width="6.23" height="7.38"/>
<rect x="350.11" y="389.28" width="6.23" height="7.38"/>
<rect x="339.17" y="389.28" width="6.23" height="7.38"/>
<rect x="328.22" y="389.28" width="6.23" height="7.38"/>
<rect x="317.28" y="389.28" width="6.23" height="7.38"/>
<rect x="1126.91" y="376.31" width="6.23" height="7.38"/>
<rect x="1115.96" y="376.31" width="6.23" height="7.38"/>
<rect x="1105.02" y="376.31" width="6.23" height="7.38"/>
<rect x="1094.08" y="376.31" width="6.23" height="7.38"/>
<rect x="984.67" y="376.31" width="6.23" height="7.38"/>
<rect x="743.98" y="376.31" width="6.23" height="7.38"/>
<rect x="733.04" y="376.31" width="6.23" height="7.38"/>
<rect x="722.09" y="376.31" width="6.23" height="7.38"/>
<rect x="711.15" y="376.31" width="6.23" height="7.38"/>
<rect x="700.21" y="376.31" width="6.23" height="7.38"/>
<rect x="689.27" y="376.31" width="6.23" height="7.38"/>
<rect x="678.33" y="376.31" width="6.23" height="7.38"/>
<rect x="667.39" y="376.31" width="6.23" height="7.38"/>
<rect x="656.45" y="376.31" width="6.23" height="7.38"/>
<rect x="645.51" y="376.31" width="6.23" height="7.38"/>
<rect x="448.57" y="376.31" width="6.23" height="7.38"/>
<rect x="437.63" y="376.31" width="6.23" height="7.38"/>
<rect x="426.69" y="376.31" width="6.23" height="7.38"/>
<rect x="415.75" y="376.31" width="6.23" height="7.38"/>
<rect x="404.81" y="376.31" width="6.23" height="7.38"/>
<rect x="393.87" y="376.31" width="6.23" height="7.38"/>
<rect x="382.93" y="376.31" width="6.23" height="7.38"/>
<rect x="371.99" y="376.31" width="6.23" height="7.38"/>
<rect x="361.05" y="376.31" width="6.23" height="7.38"/>
<rect x="350.11" y="376.31" width="6.23" height="7.38"/>
<rect x="339.17" y="376.31" width="6.23" height="7.38"/>
<rect x="328.22" y="376.31" width="6.23" height="7.38"/>
<rect x="317.28" y="376.31" width="6.23" height="7.38"/>
<rect x="1028.44" y="363.33" width="6.23" height="7.38"/>
<rect x="1017.5" y="363.33" width="6.23" height="7.38"/>
<rect x="1006.56" y="363.33" width="6.23" height="7.38"/>
<rect x="973.73" y="363.33" width="6.23" height="7.38"/>
<rect x="754.92" y="363.33" width="6.23" height="7.38"/>
<rect x="743.98" y="363.33" width="6.23" height="7.38"/>
<rect x="733.04" y="363.33" width="6.23" height="7.38"/>
<rect x="722.09" y="363.33" width="6.23" height="7.38"/>
<rect x="711.15" y="363.33" width="6.23" height="7.38"/>
<rect x="700.21" y="363.33" width="6.23" height="7.38"/>
<rect x="689.27" y="363.33" width="6.23" height="7.38"/>
<rect x="678.33" y="363.33" width="6.23" height="7.38"/>
<rect x="667.39" y="363.33" width="6.23" height="7.38"/>
<rect x="656.45" y="363.33" width="6.23" height="7.38"/>
<rect x="645.51" y="363.33" width="6.23" height="7.38"/>
<rect x="415.75" y="363.33" width="6.23" height="7.38"/>
<rect x="404.81" y="363.33" width="6.23" height="7.38"/>
<rect x="393.87" y="363.33" width="6.23" height="7.38"/>
<rect x="382.93" y="363.33" width="6.23" height="7.38"/>
<rect x="371.99" y="363.33" width="6.23" height="7.38"/>
<rect x="361.05" y="363.33" width="6.23" height="7.38"/>
<rect x="350.11" y="363.33" width="6.23" height="7.38"/>
<rect x="339.17" y="363.33" width="6.23" height="7.38"/>
<rect x="328.22" y="363.33" width="6.23" height="7.38"/>
<rect x="317.28" y="363.33" width="6.23" height="7.38"/>
<rect x="1028.44" y="350.35" width="6.23" height="7.38"/>
<rect x="1017.5" y="350.35" width="6.23" height="7.38"/>
<rect x="973.73" y="350.35" width="6.23" height="7.38"/>
<rect x="962.79" y="350.35" width="6.23" height="7.38"/>
<rect x="765.86" y="350.35" width="6.23" height="7.38"/>
<rect x="754.92" y="350.35" width="6.23" height="7.38"/>
<rect x="743.98" y="350.35" width="6.23" height="7.38"/>
<rect x="733.04" y="350.35" width="6.23" height="7.38"/>
<rect x="722.09" y="350.35" width="6.23" height="7.38"/>
<rect x="711.15" y="350.35" width="6.23" height="7.38"/>
<rect x="700.21" y="350.35" width="6.23" height="7.38"/>
<rect x="689.27" y="350.35" width="6.23" height="7.38"/>
<rect x="678.33" y="350.35" width="6.23" height="7.38"/>
<rect x="667.39" y="350.35" width="6.23" height="7.38"/>
<rect x="656.45" y="350.35" width="6.23" height="7.38"/>
<rect x="645.51" y="350.35" width="6.23" height="7.38"/>
<rect x="404.81" y="350.35" width="6.23" height="7.38"/>
<rect x="393.87" y="350.35" width="6.23" height="7.38"/>
<rect x="382.93" y="350.35" width="6.23" height="7.38"/>
<rect x="371.99" y="350.35" width="6.23" height="7.38"/>
<rect x="361.05" y="350.35" width="6.23" height="7.38"/>
<rect x="350.11" y="350.35" width="6.23" height="7.38"/>
<rect x="339.17" y="350.35" width="6.23" height="7.38"/>
<rect x="328.22" y="350.35" width="6.23" height="7.38"/>
<rect x="1028.44" y="337.38" width="6.23" height="7.38"/>
<rect x="973.73" y="337.38" width="6.23" height="7.38"/>
<rect x="765.86" y="337.38" width="6.23" height="7.38"/>
<rect x="754.92" y="337.38" width="6.23" height="7.38"/>
<rect x="743.98" y="337.38" width="6.23" height="7.38"/>
<rect x="733.04" y="337.38" width="6.23" height="7.38"/>
<rect x="722.09" y="337.38" width="6.23" height="7.38"/>
<rect x="711.15" y="337.38" width="6.23" height="7.38"/>
<rect x="700.21" y="337.38" width="6.23" height="7.38"/>
<rect x="689.27" y="337.38" width="6.23" height="7.38"/>
<rect x="678.33" y="337.38" width="6.23" height="7.38"/>
<rect x="667.39" y="337.38" width="6.23" height="7.38"/>
<rect x="656.45" y="337.38" width="6.23" height="7.38"/>
<rect x="645.51" y="337.38" width="6.23" height="7.38"/>
<rect x="634.57" y="337.38" width="6.23" height="7.38"/>
<rect x="623.63" y="337.38" width="6.23" height="7.38"/>
<rect x="404.81" y="337.38" width="6.23" height="7.38"/>
<rect x="393.87" y="337.38" width="6.23" height="7.38"/>
<rect x="382.93" y="337.38" width="6.23" height="7.38"/>
<rect x="371.99" y="337.38" width="6.23" height="7.38"/>
<rect x="361.05" y="337.38" width="6.23" height="7.38"/>
<rect x="350.11" y="337.38" width="6.23" height="7.38"/>
<rect x="339.17" y="337.38" width="6.23" height="7.38"/>
<rect x="328.22" y="337.38" width="6.23" height="7.38"/>
<rect x="1061.26" y="324.4" width="6.23" height="7.38"/>
<rect x="897.15" y="324.4" width="6.23" height="7.38"/>
<rect x="776.8" y="324.4" width="6.23" height="7.38"/>
<rect x="765.86" y="324.4" width="6.23" height="7.38"/>
<rect x="754.92" y="324.4" width="6.23" height="7.38"/>
<rect x="743.98" y="324.4" width="6.23" height="7.38"/>
<rect x="733.04" y="324.4" width="6.23" height="7.38"/>
<rect x="722.09" y="324.4" width="6.23" height="7.38"/>
<rect x="711.15" y="324.4" width="6.23" height="7.38"/>
<rect x="700.21" y="324.4" width="6.23" height="7.38"/>
<rect x="689.27" y="324.4" width="6.23" height="7.38"/>
<rect x="678.33" y="324.4" width="6.23" height="7.38"/>
<rect x="667.39" y="324.4" width="6.23" height="7.38"/>
<rect x="656.45" y="324.4" width="6.23" height="7.38"/>
<rect x="645.51" y="324.4" width="6.23" height="7.38"/>
<rect x="634.57" y="324.4" width="6.23" height="7.38"/>
<rect x="623.63" y="324.4" width="6.23" height="7.38"/>
<rect x="612.69" y="324.4" width="6.23" height="7.38"/>
<rect x="601.75" y="324.4" width="6.23" height="7.38"/>
<rect x="590.8" y="324.4" width="6.23" height="7.38"/>
<rect x="579.86" y="324.4" width="6.23" height="7.38"/>
<rect x="568.92" y="324.4" width="6.23" height="7.38"/>
<rect x="557.98" y="324.4" width="6.23" height="7.38"/>
<rect x="371.99" y="324.4" width="6.23" height="7.38"/>
<rect x="361.05" y="324.4" width="6.23" height="7.38"/>
<rect x="350.11" y="324.4" width="6.23" height="7.38"/>
<rect x="339.17" y="324.4" width="6.23" height="7.38"/>
<rect x="328.22" y="324.4" width="6.23" height="7.38"/>
<rect x="317.28" y="324.4" width="6.23" height="7.38"/>
<rect x="306.34" y="324.4" width="6.23" height="7.38"/>
<rect x="995.62" y="311.43" width="6.23" height="7.38"/>
<rect x="984.67" y="311.43" width="6.23" height="7.38"/>
<rect x="886.21" y="311.43" width="6.23" height="7.38"/>
<rect x="754.92" y="311.43" width="6.23" height="7.38"/>
<rect x="743.98" y="311.43" width="6.23" height="7.38"/>
<rect x="733.04" y="311.43" width="6.23" height="7.38"/>
<rect x="722.09" y="311.43" width="6.23" height="7.38"/>
<rect x="711.15" y="311.43" width="6.23" height="7.38"/>
<rect x="700.21" y="311.43" width="6.23" height="7.38"/>
<rect x="689.27" y="311.43" width="6.23" height="7.38"/>
<rect x="678.33" y="311.43" width="6.23" height="7.38"/>
<rect x="667.39" y="311.43" width="6.23" height="7.38"/>
<rect x="656.45" y="311.43" width="6.23" height="7.38"/>
<rect x="645.51" y="311.43" width="6.23" height="7.38"/>
<rect x="634.57" y="311.43" width="6.23" height="7.38"/>
<rect x="623.63" y="311.43" width="6.23" height="7.38"/>
<rect x="612.69" y="311.43" width="6.23" height="7.38"/>
<rect x="601.75" y="311.43" width="6.23" height="7.38"/>
<rect x="590.8" y="311.43" width="6.23" height="7.38"/>
<rect x="579.86" y="311.43" width="6.23" height="7.38"/>
<rect x="568.92" y="311.43" width="6.23" height="7.38"/>
<rect x="557.98" y="311.43" width="6.23" height="7.38"/>
<rect x="547.04" y="311.43" width="6.23" height="7.38"/>
<rect x="995.62" y="298.45" width="6.23" height="7.38"/>
<rect x="984.67" y="298.45" width="6.23" height="7.38"/>
<rect x="973.73" y="298.45" width="6.23" height="7.38"/>
<rect x="962.79" y="298.45" width="6.23" height="7.38"/>
<rect x="886.21" y="298.45" width="6.23" height="7.38"/>
<rect x="776.8" y="298.45" width="6.23" height="7.38"/>
<rect x="765.86" y="298.45" width="6.23" height="7.38"/>
<rect x="743.98" y="298.45" width="6.23" height="7.38"/>
<rect x="733.04" y="298.45" width="6.23" height="7.38"/>
<rect x="722.09" y="298.45" width="6.23" height="7.38"/>
<rect x="711.15" y="298.45" width="6.23" height="7.38"/>
<rect x="700.21" y="298.45" width="6.23" height="7.38"/>
<rect x="689.27" y="298.45" width="6.23" height="7.38"/>
<rect x="678.33" y="298.45" width="6.23" height="7.38"/>
<rect x="667.39" y="298.45" width="6.23" height="7.38"/>
<rect x="656.45" y="298.45" width="6.23" height="7.38"/>
<rect x="645.51" y="298.45" width="6.23" height="7.38"/>
<rect x="634.57" y="298.45" width="6.23" height="7.38"/>
<rect x="623.63" y="298.45" width="6.23" height="7.38"/>
<rect x="612.69" y="298.45" width="6.23" height="7.38"/>
<rect x="601.75" y="298.45" width="6.23" height="7.38"/>
<rect x="590.8" y="298.45" width="6.23" height="7.38"/>
<rect x="579.86" y="298.45" width="6.23" height="7.38"/>
<rect x="568.92" y="298.45" width="6.23" height="7.38"/>
<rect x="557.98" y="298.45" width="6.23" height="7.38"/>
<rect x="547.04" y="298.45" width="6.23" height="7.38"/>
<rect x="284.46" y="298.45" width="6.23" height="7.38"/>
<rect x="273.52" y="298.45" width="6.23" height="7.38"/>
<rect x="262.58" y="298.45" width="6.23" height="7.38"/>
<rect x="984.67" y="285.47" width="6.23" height="7.38"/>
<rect x="973.73" y="285.47" width="6.23" height="7.38"/>
<rect x="962.79" y="285.47" width="6.23" height="7.38"/>
<rect x="951.85" y="285.47" width="6.23" height="7.38"/>
<rect x="897.15" y="285.47" width="6.23" height="7.38"/>
<rect x="886.21" y="285.47" width="6.23" height="7.38"/>
<rect x="875.27" y="285.47" width="6.23" height="7.38"/>
<rect x="787.74" y="285.47" width="6.23" height="7.38"/>
<rect x="776.8" y="285.47" width="6.23" height="7.38"/>
<rect x="765.86" y="285.47" width="6.23" height="7.38"/>
<rect x="743.98" y="285.47" width="6.23" height="7.38"/>
<rect x="733.04" y="285.47" width="6.23" height="7.38"/>
<rect x="722.09" y="285.47" width="6.23" height="7.38"/>
<rect x="711.15" y="285.47" width="6.23" height="7.38"/>
<rect x="700.21" y="285.47" width="6.23" height="7.38"/>
<rect x="689.27" y="285.47" width="6.23" height="7.38"/>
<rect x="678.33" y="285.47" width="6.23" height="7.38"/>
<rect x="667.39" y="285.47" width="6.23" height="7.38"/>
<rect x="656.45" y="285.47" width="6.23" height="7.38"/>
<rect x="645.51" y="285.47" width="6.23" height="7.38"/>
<rect x="634.57" y="285.47" width="6.23" height="7.38"/>
<rect x="623.63" y="285.47" width="6.23" height="7.38"/>
<rect x="612.69" y="285.47" width="6.23" height="7.38"/>
<rect x="601.75" y="285.47" width="6.23" height="7.38"/>
<rect x="590.8" y="285.47" width="6.23" height="7.38"/>
<rect x="579.86" y="285.47" width="6.23" height="7.38"/>
<rect x="568.92" y="285.47" width="6.23" height="7.38"/>
<rect x="557.98" y="285.47" width="6.23" height="7.38"/>
<rect x="547.04" y="285.47" width="6.23" height="7.38"/>
<rect x="273.52" y="285.47" width="6.23" height="7.38"/>
<rect x="262.58" y="285.47" width="6.23" height="7.38"/>
<rect x="251.64" y="285.47" width="6.23" height="7.38"/>
<rect x="240.7" y="285.47" width="6.23" height="7.38"/>
<rect x="984.67" y="272.5" width="6.23" height="7.38"/>
<rect x="973.73" y="272.5" width="6.23" height="7.38"/>
<rect x="962.79" y="272.5" width="6.23" height="7.38"/>
<rect x="951.85" y="272.5" width="6.23" height="7.38"/>
<rect x="919.03" y="272.5" width="6.23" height="7.38"/>
<rect x="908.09" y="272.5" width="6.23" height="7.38"/>
<rect x="897.15" y="272.5" width="6.23" height="7.38"/>
<rect x="886.21" y="272.5" width="6.23" height="7.38"/>
<rect x="875.27" y="272.5" width="6.23" height="7.38"/>
<rect x="809.62" y="272.5" width="6.23" height="7.38"/>
<rect x="798.68" y="272.5" width="6.23" height="7.38"/>
<rect x="787.74" y="272.5" width="6.23" height="7.38"/>
<rect x="776.8" y="272.5" width="6.23" height="7.38"/>
<rect x="765.86" y="272.5" width="6.23" height="7.38"/>
<rect x="754.92" y="272.5" width="6.23" height="7.38"/>
<rect x="733.04" y="272.5" width="6.23" height="7.38"/>
<rect x="722.09" y="272.5" width="6.23" height="7.38"/>
<rect x="711.15" y="272.5" width="6.23" height="7.38"/>
<rect x="700.21" y="272.5" width="6.23" height="7.38"/>
<rect x="689.27" y="272.5" width="6.23" height="7.38"/>
<rect x="678.33" y="272.5" width="6.23" height="7.38"/>
<rect x="667.39" y="272.5" width="6.23" height="7.38"/>
<rect x="656.45" y="272.5" width="6.23" height="7.38"/>
<rect x="645.51" y="272.5" width="6.23" height="7.38"/>
<rect x="634.57" y="272.5" width="6.23" height="7.38"/>
<rect x="623.63" y="272.5" width="6.23" height="7.38"/>
<rect x="612.69" y="272.5" width="6.23" height="7.38"/>
<rect x="601.75" y="272.5" width="6.23" height="7.38"/>
<rect x="590.8" y="272.5" width="6.23" height="7.38"/>
<rect x="579.86" y="272.5" width="6.23" height="7.38"/>
<rect x="568.92" y="272.5" width="6.23" height="7.38"/>
<rect x="557.98" y="272.5" width="6.23" height="7.38"/>
<rect x="547.04" y="272.5" width="6.23" height="7.38"/>
<rect x="273.52" y="272.5" width="6.23" height="7.38"/>
<rect x="240.7" y="272.5" width="6.23" height="7.38"/>
<rect x="229.76" y="272.5" width="6.23" height="7.38"/>
<rect x="218.82" y="272.5" width="6.23" height="7.38"/>
<rect x="1028.44" y="259.52" width="6.23" height="7.38"/>
<rect x="1017.5" y="259.52" width="6.23" height="7.38"/>
<rect x="1006.56" y="259.52" width="6.23" height="7.38"/>
<rect x="995.62" y="259.52" width="6.23" height="7.38"/>
<rect x="984.67" y="259.52" width="6.23" height="7.38"/>
<rect x="973.73" y="259.52" width="6.23" height="7.38"/>
<rect x="962.79" y="259.52" width="6.23" height="7.38"/>
<rect x="951.85" y="259.52" width="6.23" height="7.38"/>
<rect x="940.91" y="259.52" width="6.23" height="7.38"/>
<rect x="929.97" y="259.52" width="6.23" height="7.38"/>
<rect x="919.03" y="259.52" width="6.23" height="7.38"/>
<rect x="908.09" y="259.52" width="6.23" height="7.38"/>
<rect x="897.15" y="259.52" width="6.23" height="7.38"/>
<rect x="886.21" y="259.52" width="6.23" height="7.38"/>
<rect x="875.27" y="259.52" width="6.23" height="7.38"/>
<rect x="864.33" y="259.52" width="6.23" height="7.38"/>
<rect x="853.38" y="259.52" width="6.23" height="7.38"/>
<rect x="809.62" y="259.52" width="6.23" height="7.38"/>
<rect x="798.68" y="259.52" width="6.23" height="7.38"/>
<rect x="787.74" y="259.52" width="6.23" height="7.38"/>
<rect x="776.8" y="259.52" width="6.23" height="7.38"/>
<rect x="765.86" y="259.52" width="6.23" height="7.38"/>
<rect x="754.92" y="259.52" width="6.23" height="7.38"/>
<rect x="722.09" y="259.52" width="6.23" height="7.38"/>
<rect x="711.15" y="259.52" width="6.23" height="7.38"/>
<rect x="700.21" y="259.52" width="6.23" height="7.38"/>
<rect x="689.27" y="259.52" width="6.23" height="7.38"/>
<rect x="678.33" y="259.52" width="6.23" height="7.38"/>
<rect x="667.39" y="259.52" width="6.23" height="7.38"/>
<rect x="656.45" y="259.52" width="6.23" height="7.38"/>
<rect x="645.51" y="259.52" width="6.23" height="7.38"/>
<rect x="634.57" y="259.52" width="6.23" height="7.38"/>
<rect x="623.63" y="259.52" width="6.23" height="7.38"/>
<rect x="612.69" y="259.52" width="6.23" height="7.38"/>
<rect x="601.75" y="259.52" width="6.23" height="7.38"/>
<rect x="590.8" y="259.52" width="6.23" height="7.38"/>
<rect x="579.86" y="259.52" width="6.23" height="7.38"/>
<rect x="568.92" y="259.52" width="6.23" height="7.38"/>
<rect x="557.98" y="259.52" width="6.23" height="7.38"/>
<rect x="547.04" y="259.52" width="6.23" height="7.38"/>
<rect x="240.7" y="259.52" width="6.23" height="7.38"/>
<rect x="229.76" y="259.52" width="6.23" height="7.38"/>
<rect x="218.82" y="259.52" width="6.23" height="7.38"/>
<rect x="196.93" y="259.52" width="6.23" height="7.38"/>
<rect x="1039.38" y="246.54" width="6.23" height="7.38"/>
<rect x="1028.44" y="246.54" width="6.23" height="7.38"/>
<rect x="1017.5" y="246.54" width="6.23" height="7.38"/>
<rect x="1006.56" y="246.54" width="6.23" height="7.38"/>
<rect x="995.62" y="246.54" width="6.23" height="7.38"/>
<rect x="984.67" y="246.54" width="6.23" height="7.38"/>
<rect x="973.73" y="246.54" width="6.23" height="7.38"/>
<rect x="962.79" y="246.54" width="6.23" height="7.38"/>
<rect x="951.85" y="246.54" width="6.23" height="7.38"/>
<rect x="940.91" y="246.54" width="6.23" height="7.38"/>
<rect x="929.97" y="246.54" width="6.23" height="7.38"/>
<rect x="919.03" y="246.54" width="6.23" height="7.38"/>
<rect x="908.09" y="246.54" width="6.23" height="7.38"/>
<rect x="897.15" y="246.54" width="6.23" height="7.38"/>
<rect x="886.21" y="246.54" width="6.23" height="7.38"/>
<rect x="875.27" y="246.54" width="6.23" height="7.38"/>
<rect x="864.33" y="246.54" width="6.23" height="7.38"/>
<rect x="853.38" y="246.54" width="6.23" height="7.38"/>
<rect x="842.44" y="246.54" width="6.23" height="7.38"/>
<rect x="831.5" y="246.54" width="6.23" height="7.38"/>
<rect x="820.56" y="246.54" width="6.23" height="7.38"/>
<rect x="787.74" y="246.54" width="6.23" height="7.38"/>
<rect x="776.8" y="246.54" width="6.23" height="7.38"/>
<rect x="765.86" y="246.54" width="6.23" height="7.38"/>
<rect x="754.92" y="246.54" width="6.23" height="7.38"/>
<rect x="743.98" y="246.54" width="6.23" height="7.38"/>
<rect x="722.09" y="246.54" width="6.23" height="7.38"/>
<rect x="711.15" y="246.54" width="6.23" height="7.38"/>
<rect x="700.21" y="246.54" width="6.23" height="7.38"/>
<rect x="689.27" y="246.54" width="6.23" height="7.38"/>
<rect x="678.33" y="246.54" width="6.23" height="7.38"/>
<rect x="667.39" y="246.54" width="6.23" height="7.38"/>
<rect x="656.45" y="246.54" width="6.23" height="7.38"/>
<rect x="645.51" y="246.54" width="6.23" height="7.38"/>
<rect x="634.57" y="246.54" width="6.23" height="7.38"/>
<rect x="623.63" y="246.54" width="6.23" height="7.38"/>
<rect x="612.69" y="246.54" width="6.23" height="7.38"/>
<rect x="601.75" y="246.54" width="6.23" height="7.38"/>
<rect x="590.8" y="246.54" width="6.23" height="7.38"/>
<rect x="579.86" y="246.54" width="6.23" height="7.38"/>
<rect x="568.92" y="246.54" width="6.23" height="7.38"/>
<rect x="557.98" y="246.54" width="6.23" height="7.38"/>
<rect x="306.34" y="246.54" width="6.23" height="7.38"/>
<rect x="240.7" y="246.54" width="6.23" height="7.38"/>
<rect x="229.76" y="246.54" width="6.23" height="7.38"/>
<rect x="218.82" y="246.54" width="6.23" height="7.38"/>
<rect x="207.88" y="246.54" width="6.23" height="7.38"/>
<rect x="1039.38" y="233.57" width="6.23" height="7.38"/>
<rect x="1028.44" y="233.57" width="6.23" height="7.38"/>
<rect x="1017.5" y="233.57" width="6.23" height="7.38"/>
<rect x="1006.56" y="233.57" width="6.23" height="7.38"/>
<rect x="995.62" y="233.57" width="6.23" height="7.38"/>
<rect x="984.67" y="233.57" width="6.23" height="7.38"/>
<rect x="973.73" y="233.57" width="6.23" height="7.38"/>
<rect x="962.79" y="233.57" width="6.23" height="7.38"/>
<rect x="951.85" y="233.57" width="6.23" height="7.38"/>
<rect x="940.91" y="233.57" width="6.23" height="7.38"/>
<rect x="929.97" y="233.57" width="6.23" height="7.38"/>
<rect x="919.03" y="233.57" width="6.23" height="7.38"/>
<rect x="908.09" y="233.57" width="6.23" height="7.38"/>
<rect x="897.15" y="233.57" width="6.23" height="7.38"/>
<rect x="886.21" y="233.57" width="6.23" height="7.38"/>
<rect x="875.27" y="233.57" width="6.23" height="7.38"/>
<rect x="864.33" y="233.57" width="6.23" height="7.38"/>
<rect x="853.38" y="233.57" width="6.23" height="7.38"/>
<rect x="842.44" y="233.57" width="6.23" height="7.38"/>
<rect x="831.5" y="233.57" width="6.23" height="7.38"/>
<rect x="820.56" y="233.57" width="6.23" height="7.38"/>
<rect x="809.62" y="233.57" width="6.23" height="7.38"/>
<rect x="798.68" y="233.57" width="6.23" height="7.38"/>
<rect x="765.86" y="233.57" width="6.23" height="7.38"/>
<rect x="754.92" y="233.57" width="6.23" height="7.38"/>
<rect x="743.98" y="233.57" width="6.23" height="7.38"/>
<rect x="733.04" y="233.57" width="6.23" height="7.38"/>
<rect x="711.15" y="233.57" width="6.23" height="7.38"/>
<rect x="700.21" y="233.57" width="6.23" height="7.38"/>
<rect x="689.27" y="233.57" width="6.23" height="7.38"/>
<rect x="678.33" y="233.57" width="6.23" height="7.38"/>
<rect x="667.39" y="233.57" width="6.23" height="7.38"/>
<rect x="656.45" y="233.57" width="6.23" height="7.38"/>
<rect x="645.51" y="233.57" width="6.23" height="7.38"/>
<rect x="634.57" y="233.57" width="6.23" height="7.38"/>
<rect x="623.63" y="233.57" width="6.23" height="7.38"/>
<rect x="612.69" y="233.57" width="6.23" height="7.38"/>
<rect x="601.75" y="233.57" width="6.23" height="7.38"/>
<rect x="590.8" y="233.57" width="6.23" height="7.38"/>
<rect x="579.86" y="233.57" width="6.23" height="7.38"/>
<rect x="568.92" y="233.57" width="6.23" height="7.38"/>
<rect x="240.7" y="233.57" width="6.23" height="7.38"/>
<rect x="229.76" y="233.57" width="6.23" height="7.38"/>
<rect x="218.82" y="233.57" width="6.23" height="7.38"/>
<rect x="207.88" y="233.57" width="6.23" height="7.38"/>
<rect x="196.93" y="233.57" width="6.23" height="7.38"/>
<rect x="1083.14" y="220.59" width="6.23" height="7.38"/>
<rect x="1039.38" y="220.59" width="6.23" height="7.38"/>
<rect x="1028.44" y="220.59" width="6.23" height="7.38"/>
<rect x="1017.5" y="220.59" width="6.23" height="7.38"/>
<rect x="1006.56" y="220.59" width="6.23" height="7.38"/>
<rect x="995.62" y="220.59" width="6.23" height="7.38"/>
<rect x="984.67" y="220.59" width="6.23" height="7.38"/>
<rect x="973.73" y="220.59" width="6.23" height="7.38"/>
<rect x="962.79" y="220.59" width="6.23" height="7.38"/>
<rect x="951.85" y="220.59" width="6.23" height="7.38"/>
<rect x="940.91" y="220.59" width="6.23" height="7.38"/>
<rect x="929.97" y="220.59" width="6.23" height="7.38"/>
<rect x="919.03" y="220.59" width="6.23" height="7.38"/>
<rect x="908.09" y="220.59" width="6.23" height="7.38"/>
<rect x="897.15" y="220.59" width="6.23" height="7.38"/>
<rect x="886.21" y="220.59" width="6.23" height="7.38"/>
<rect x="875.27" y="220.59" width="6.23" height="7.38"/>
<rect x="864.33" y="220.59" width="6.23" height="7.38"/>
<rect x="853.38" y="220.59" width="6.23" height="7.38"/>
<rect x="842.44" y="220.59" width="6.23" height="7.38"/>
<rect x="831.5" y="220.59" width="6.23" height="7.38"/>
<rect x="820.56" y="220.59" width="6.23" height="7.38"/>
<rect x="809.62" y="220.59" width="6.23" height="7.38"/>
<rect x="798.68" y="220.59" width="6.23" height="7.38"/>
<rect x="787.74" y="220.59" width="6.23" height="7.38"/>
<rect x="776.8" y="220.59" width="6.23" height="7.38"/>
<rect x="765.86" y="220.59" width="6.23" height="7.38"/>
<rect x="754.92" y="220.59" width="6.23" height="7.38"/>
<rect x="743.98" y="220.59" width="6.23" height="7.38"/>
<rect x="733.04" y="220.59" width="6.23" height="7.38"/>
<rect x="678.33" y="220.59" width="6.23" height="7.38"/>
<rect x="645.51" y="220.59" width="6.23" height="7.38"/>
<rect x="634.57" y="220.59" width="6.23" height="7.38"/>
<rect x="623.63" y="220.59" width="6.23" height="7.38"/>
<rect x="612.69" y="220.59" width="6.23" height="7.38"/>
<rect x="601.75" y="220.59" width="6.23" height="7.38"/>
<rect x="590.8" y="220.59" width="6.23" height="7.38"/>
<rect x="579.86" y="220.59" width="6.23" height="7.38"/>
<rect x="306.34" y="220.59" width="6.23" height="7.38"/>
<rect x="295.4" y="220.59" width="6.23" height="7.38"/>
<rect x="284.46" y="220.59" width="6.23" height="7.38"/>
<rect x="273.52" y="220.59" width="6.23" height="7.38"/>
<rect x="262.58" y="220.59" width="6.23" height="7.38"/>
<rect x="251.64" y="220.59" width="6.23" height="7.38"/>
<rect x="240.7" y="220.59" width="6.23" height="7.38"/>
<rect x="229.76" y="220.59" width="6.23" height="7.38"/>
<rect x="218.82" y="220.59" width="6.23" height="7.38"/>
<rect x="207.88" y="220.59" width="6.23" height="7.38"/>
<rect x="196.93" y="220.59" width="6.23" height="7.38"/>
<rect x="185.99" y="220.59" width="6.23" height="7.38"/>
<rect x="175.05" y="220.59" width="6.23" height="7.38"/>
<rect x="1105.02" y="207.62" width="6.23" height="7.38"/>
<rect x="1072.2" y="207.62" width="6.23" height="7.38"/>
<rect x="1039.38" y="207.62" width="6.23" height="7.38"/>
<rect x="1028.44" y="207.62" width="6.23" height="7.38"/>
<rect x="1017.5" y="207.62" width="6.23" height="7.38"/>
<rect x="1006.56" y="207.62" width="6.23" height="7.38"/>
<rect x="995.62" y="207.62" width="6.23" height="7.38"/>
<rect x="984.67" y="207.62" width="6.23" height="7.38"/>
<rect x="973.73" y="207.62" width="6.23" height="7.38"/>
<rect x="962.79" y="207.62" width="6.23" height="7.38"/>
<rect x="951.85" y="207.62" width="6.23" height="7.38"/>
<rect x="940.91" y="207.62" width="6.23" height="7.38"/>
<rect x="929.97" y="207.62" width="6.23" height="7.38"/>
<rect x="919.03" y="207.62" width="6.23" height="7.38"/>
<rect x="908.09" y="207.62" width="6.23" height="7.38"/>
<rect x="897.15" y="207.62" width="6.23" height="7.38"/>
<rect x="886.21" y="207.62" width="6.23" height="7.38"/>
<rect x="875.27" y="207.62" width="6.23" height="7.38"/>
<rect x="864.33" y="207.62" width="6.23" height="7.38"/>
<rect x="853.38" y="207.62" width="6.23" height="7.38"/>
<rect x="842.44" y="207.62" width="6.23" height="7.38"/>
<rect x="831.5" y="207.62" width="6.23" height="7.38"/>
<rect x="820.56" y="207.62" width="6.23" height="7.38"/>
<rect x="809.62" y="207.62" width="6.23" height="7.38"/>
<rect x="798.68" y="207.62" width="6.23" height="7.38"/>
<rect x="787.74" y="207.62" width="6.23" height="7.38"/>
<rect x="776.8" y="207.62" width="6.23" height="7.38"/>
<rect x="765.86" y="207.62" width="6.23" height="7.38"/>
<rect x="754.92" y="207.62" width="6.23" height="7.38"/>
<rect x="743.98" y="207.62" width="6.23" height="7.38"/>
<rect x="634.57" y="207.62" width="6.23" height="7.38"/>
<rect x="623.63" y="207.62" width="6.23" height="7.38"/>
<rect x="612.69" y="207.62" width="6.23" height="7.38"/>
<rect x="601.75" y="207.62" width="6.23" height="7.38"/>
<rect x="317.28" y="207.62" width="6.23" height="7.38"/>
<rect x="306.34" y="207.62" width="6.23" height="7.38"/>
<rect x="295.4" y="207.62" width="6.23" height="7.38"/>
<rect x="284.46" y="207.62" width="6.23" height="7.38"/>
<rect x="273.52" y="207.62" width="6.23" height="7.38"/>
<rect x="262.58" y="207.62" width="6.23" height="7.38"/>
<rect x="251.64" y="207.62" width="6.23" height="7.38"/>
<rect x="240.7" y="207.62" width="6.23" height="7.38"/>
<rect x="229.76" y="207.62" width="6.23" height="7.38"/>
<rect x="218.82" y="207.62" width="6.23" height="7.38"/>
<rect x="207.88" y="207.62" width="6.23" height="7.38"/>
<rect x="196.93" y="207.62" width="6.23" height="7.38"/>
<rect x="185.99" y="207.62" width="6.23" height="7.38"/>
<rect x="175.05" y="207.62" width="6.23" height="7.38"/>
<rect x="164.11" y="207.62" width="6.23" height="7.38"/>
<rect x="1115.96" y="194.64" width="6.23" height="7.38"/>
<rect x="1072.2" y="194.64" width="6.23" height="7.38"/>
<rect x="1039.38" y="194.64" width="6.23" height="7.38"/>
<rect x="1028.44" y="194.64" width="6.23" height="7.38"/>
<rect x="1017.5" y="194.64" width="6.23" height="7.38"/>
<rect x="1006.56" y="194.64" width="6.23" height="7.38"/>
<rect x="995.62" y="194.64" width="6.23" height="7.38"/>
<rect x="984.67" y="194.64" width="6.23" height="7.38"/>
<rect x="973.73" y="194.64" width="6.23" height="7.38"/>
<rect x="962.79" y="194.64" width="6.23" height="7.38"/>
<rect x="951.85" y="194.64" width="6.23" height="7.38"/>
<rect x="940.91" y="194.64" width="6.23" height="7.38"/>
<rect x="929.97" y="194.64" width="6.23" height="7.38"/>
<rect x="919.03" y="194.64" width="6.23" height="7.38"/>
<rect x="908.09" y="194.64" width="6.23" height="7.38"/>
<rect x="897.15" y="194.64" width="6.23" height="7.38"/>
<rect x="886.21" y="194.64" width="6.23" height="7.38"/>
<rect x="875.27" y="194.64" width="6.23" height="7.38"/>
<rect x="864.33" y="194.64" width="6.23" height="7.38"/>
<rect x="853.38" y="194.64" width="6.23" height="7.38"/>
<rect x="842.44" y="194.64" width="6.23" height="7.38"/>
<rect x="831.5" y="194.64" width="6.23" height="7.38"/>
<rect x="820.56" y="194.64" width="6.23" height="7.38"/>
<rect x="809.62" y="194.64" width="6.23" height="7.38"/>
<rect x="776.8" y="194.64" width="6.23" height="7.38"/>
<rect x="765.86" y="194.64" width="6.23" height="7.38"/>
<rect x="754.92" y="194.64" width="6.23" height="7.38"/>
<rect x="743.98" y="194.64" width="6.23" height="7.38"/>
<rect x="733.04" y="194.64" width="6.23" height="7.38"/>
<rect x="722.09" y="194.64" width="6.23" height="7.38"/>
<rect x="711.15" y="194.64" width="6.23" height="7.38"/>
<rect x="656.45" y="194.64" width="6.23" height="7.38"/>
<rect x="590.8" y="194.64" width="6.23" height="7.38"/>
<rect x="579.86" y="194.64" width="6.23" height="7.38"/>
<rect x="317.28" y="194.64" width="6.23" height="7.38"/>
<rect x="306.34" y="194.64" width="6.23" height="7.38"/>
<rect x="295.4" y="194.64" width="6.23" height="7.38"/>
<rect x="284.46" y="194.64" width="6.23" height="7.38"/>
<rect x="273.52" y="194.64" width="6.23" height="7.38"/>
<rect x="262.58" y="194.64" width="6.23" height="7.38"/>
<rect x="251.64" y="194.64" width="6.23" height="7.38"/>
<rect x="240.7" y="194.64" width="6.23" height="7.38"/>
<rect x="229.76" y="194.64" width="6.23" height="7.38"/>
<rect x="218.82" y="194.64" width="6.23" height="7.38"/>
<rect x="207.88" y="194.64" width="6.23" height="7.38"/>
<rect x="196.93" y="194.64" width="6.23" height="7.38"/>
<rect x="185.99" y="194.64" width="6.23" height="7.38"/>
<rect x="175.05" y="194.64" width="6.23" height="7.38"/>
<rect x="164.11" y="194.64" width="6.23" height="7.38"/>
<rect x="153.17" y="194.64" width="6.23" height="7.38"/>
<rect x="1115.96" y="181.66" width="6.23" height="7.38"/>
<rect x="1072.2" y="181.66" width="6.23" height="7.38"/>
<rect x="1061.26" y="181.66" width="6.23" height="7.38"/>
<rect x="1050.32" y="181.66" width="6.23" height="7.38"/>
<rect x="1039.38" y="181.66" width="6.23" height="7.38"/>
<rect x="1028.44" y="181.66" width="6.23" height="7.38"/>
<rect x="1017.5" y="181.66" width="6.23" height="7.38"/>
<rect x="1006.56" y="181.66" width="6.23" height="7.38"/>
<rect x="995.62" y="181.66" width="6.23" height="7.38"/>
<rect x="984.67" y="181.66" width="6.23" height="7.38"/>
<rect x="973.73" y="181.66" width="6.23" height="7.38"/>
<rect x="962.79" y="181.66" width="6.23" height="7.38"/>
<rect x="951.85" y="181.66" width="6.23" height="7.38"/>
<rect x="940.91" y="181.66" width="6.23" height="7.38"/>
<rect x="929.97" y="181.66" width="6.23" height="7.38"/>
<rect x="919.03" y="181.66" width="6.23" height="7.38"/>
<rect x="908.09" y="181.66" width="6.23" height="7.38"/>
<rect x="897.15" y="181.66" width="6.23" height="7.38"/>
<rect x="886.21" y="181.66" width="6.23" height="7.38"/>
<rect x="875.27" y="181.66" width="6.23" height="7.38"/>
<rect x="864.33" y="181.66" width="6.23" height="7.38"/>
<rect x="853.38" y="181.66" width="6.23" height="7.38"/>
<rect x="842.44" y="181.66" width="6.23" height="7.38"/>
<rect x="831.5" y="181.66" width="6.23" height="7.38"/>
<rect x="820.56" y="181.66" width="6.23" height="7.38"/>
<rect x="809.62" y="181.66" width="6.23" height="7.38"/>
<rect x="776.8" y="181.66" width="6.23" height="7.38"/>
<rect x="765.86" y="181.66" width="6.23" height="7.38"/>
<rect x="754.92" y="181.66" width="6.23" height="7.38"/>
<rect x="733.04" y="181.66" width="6.23" height="7.38"/>
<rect x="722.09" y="181.66" width="6.23" height="7.38"/>
<rect x="711.15" y="181.66" width="6.23" height="7.38"/>
<rect x="700.21" y="181.66" width="6.23" height="7.38"/>
<rect x="678.33" y="181.66" width="6.23" height="7.38"/>
<rect x="656.45" y="181.66" width="6.23" height="7.38"/>
<rect x="601.75" y="181.66" width="6.23" height="7.38"/>
<rect x="590.8" y="181.66" width="6.23" height="7.38"/>
<rect x="579.86" y="181.66" width="6.23" height="7.38"/>
<rect x="328.22" y="181.66" width="6.23" height="7.38"/>
<rect x="317.28" y="181.66" width="6.23" height="7.38"/>
<rect x="306.34" y="181.66" width="6.23" height="7.38"/>
<rect x="295.4" y="181.66" width="6.23" height="7.38"/>
<rect x="284.46" y="181.66" width="6.23" height="7.38"/>
<rect x="273.52" y="181.66" width="6.23" height="7.38"/>
<rect x="262.58" y="181.66" width="6.23" height="7.38"/>
<rect x="251.64" y="181.66" width="6.23" height="7.38"/>
<rect x="240.7" y="181.66" width="6.23" height="7.38"/>
<rect x="229.76" y="181.66" width="6.23" height="7.38"/>
<rect x="218.82" y="181.66" width="6.23" height="7.38"/>
<rect x="207.88" y="181.66" width="6.23" height="7.38"/>
<rect x="196.93" y="181.66" width="6.23" height="7.38"/>
<rect x="185.99" y="181.66" width="6.23" height="7.38"/>
<rect x="175.05" y="181.66" width="6.23" height="7.38"/>
<rect x="164.11" y="181.66" width="6.23" height="7.38"/>
<rect x="153.17" y="181.66" width="6.23" height="7.38"/>
<rect x="1126.91" y="168.69" width="6.23" height="7.38"/>
<rect x="1094.08" y="168.69" width="6.23" height="7.38"/>
<rect x="1083.14" y="168.69" width="6.23" height="7.38"/>
<rect x="1072.2" y="168.69" width="6.23" height="7.38"/>
<rect x="1061.26" y="168.69" width="6.23" height="7.38"/>
<rect x="1050.32" y="168.69" width="6.23" height="7.38"/>
<rect x="1039.38" y="168.69" width="6.23" height="7.38"/>
<rect x="1028.44" y="168.69" width="6.23" height="7.38"/>
<rect x="1017.5" y="168.69" width="6.23" height="7.38"/>
<rect x="1006.56" y="168.69" width="6.23" height="7.38"/>
<rect x="995.62" y="168.69" width="6.23" height="7.38"/>
<rect x="984.67" y="168.69" width="6.23" height="7.38"/>
<rect x="973.73" y="168.69" width="6.23" height="7.38"/>
<rect x="962.79" y="168.69" width="6.23" height="7.38"/>
<rect x="951.85" y="168.69" width="6.23" height="7.38"/>
<rect x="940.91" y="168.69" width="6.23" height="7.38"/>
<rect x="929.97" y="168.69" width="6.23" height="7.38"/>
<rect x="919.03" y="168.69" width="6.23" height="7.38"/>
<rect x="908.09" y="168.69" width="6.23" height="7.38"/>
<rect x="897.15" y="168.69" width="6.23" height="7.38"/>
<rect x="886.21" y="168.69" width="6.23" height="7.38"/>
<rect x="875.27" y="168.69" width="6.23" height="7.38"/>
<rect x="864.33" y="168.69" width="6.23" height="7.38"/>
<rect x="853.38" y="168.69" width="6.23" height="7.38"/>
<rect x="842.44" y="168.69" width="6.23" height="7.38"/>
<rect x="831.5" y="168.69" width="6.23" height="7.38"/>
<rect x="820.56" y="168.69" width="6.23" height="7.38"/>
<rect x="809.62" y="168.69" width="6.23" height="7.38"/>
<rect x="798.68" y="168.69" width="6.23" height="7.38"/>
<rect x="765.86" y="168.69" width="6.23" height="7.38"/>
<rect x="754.92" y="168.69" width="6.23" height="7.38"/>
<rect x="700.21" y="168.69" width="6.23" height="7.38"/>
<rect x="689.27" y="168.69" width="6.23" height="7.38"/>
<rect x="678.33" y="168.69" width="6.23" height="7.38"/>
<rect x="667.39" y="168.69" width="6.23" height="7.38"/>
<rect x="645.51" y="168.69" width="6.23" height="7.38"/>
<rect x="623.63" y="168.69" width="6.23" height="7.38"/>
<rect x="612.69" y="168.69" width="6.23" height="7.38"/>
<rect x="601.75" y="168.69" width="6.23" height="7.38"/>
<rect x="361.05" y="168.69" width="6.23" height="7.38"/>
<rect x="339.17" y="168.69" width="6.23" height="7.38"/>
<rect x="328.22" y="168.69" width="6.23" height="7.38"/>
<rect x="306.34" y="168.69" width="6.23" height="7.38"/>
<rect x="273.52" y="168.69" width="6.23" height="7.38"/>
<rect x="262.58" y="168.69" width="6.23" height="7.38"/>
<rect x="251.64" y="168.69" width="6.23" height="7.38"/>
<rect x="240.7" y="168.69" width="6.23" height="7.38"/>
<rect x="229.76" y="168.69" width="6.23" height="7.38"/>
<rect x="218.82" y="168.69" width="6.23" height="7.38"/>
<rect x="207.88" y="168.69" width="6.23" height="7.38"/>
<rect x="196.93" y="168.69" width="6.23" height="7.38"/>
<rect x="185.99" y="168.69" width="6.23" height="7.38"/>
<rect x="175.05" y="168.69" width="6.23" height="7.38"/>
<rect x="164.11" y="168.69" width="6.23" height="7.38"/>
<rect x="153.17" y="168.69" width="6.23" height="7.38"/>
<rect x="1105.02" y="155.71" width="6.23" height="7.38"/>
<rect x="1094.08" y="155.71" width="6.23" height="7.38"/>
<rect x="1083.14" y="155.71" width="6.23" height="7.38"/>
<rect x="1072.2" y="155.71" width="6.23" height="7.38"/>
<rect x="1061.26" y="155.71" width="6.23" height="7.38"/>
<rect x="1050.32" y="155.71" width="6.23" height="7.38"/>
<rect x="1039.38" y="155.71" width="6.23" height="7.38"/>
<rect x="1028.44" y="155.71" width="6.23" height="7.38"/>
<rect x="1017.5" y="155.71" width="6.23" height="7.38"/>
<rect x="1006.56" y="155.71" width="6.23" height="7.38"/>
<rect x="995.62" y="155.71" width="6.23" height="7.38"/>
<rect x="984.67" y="155.71" width="6.23" height="7.38"/>
<rect x="973.73" y="155.71" width="6.23" height="7.38"/>
<rect x="962.79" y="155.71" width="6.23" height="7.38"/>
<rect x="951.85" y="155.71" width="6.23" height="7.38"/>
<rect x="940.91" y="155.71" width="6.23" height="7.38"/>
<rect x="929.97" y="155.71" width="6.23" height="7.38"/>
<rect x="919.03" y="155.71" width="6.23" height="7.38"/>
<rect x="908.09" y="155.71" width="6.23" height="7.38"/>
<rect x="897.15" y="155.71" width="6.23" height="7.38"/>
<rect x="886.21" y="155.71" width="6.23" height="7.38"/>
<rect x="875.27" y="155.71" width="6.23" height="7.38"/>
<rect x="864.33" y="155.71" width="6.23" height="7.38"/>
<rect x="853.38" y="155.71" width="6.23" height="7.38"/>
<rect x="842.44" y="155.71" width="6.23" height="7.38"/>
<rect x="831.5" y="155.71" width="6.23" height="7.38"/>
<rect x="820.56" y="155.71" width="6.23" height="7.38"/>
<rect x="809.62" y="155.71" width="6.23" height="7.38"/>
<rect x="798.68" y="155.71" width="6.23" height="7.38"/>
<rect x="776.8" y="155.71" width="6.23" height="7.38"/>
<rect x="765.86" y="155.71" width="6.23" height="7.38"/>
<rect x="754.92" y="155.71" width="6.23" height="7.38"/>
<rect x="743.98" y="155.71" width="6.23" height="7.38"/>
<rect x="722.09" y="155.71" width="6.23" height="7.38"/>
<rect x="711.15" y="155.71" width="6.23" height="7.38"/>
<rect x="700.21" y="155.71" width="6.23" height="7.38"/>
<rect x="689.27" y="155.71" width="6.23" height="7.38"/>
<rect x="678.33" y="155.71" width="6.23" height="7.38"/>
<rect x="667.39" y="155.71" width="6.23" height="7.38"/>
<rect x="656.45" y="155.71" width="6.23" height="7.38"/>
<rect x="645.51" y="155.71" width="6.23" height="7.38"/>
<rect x="634.57" y="155.71" width="6.23" height="7.38"/>
<rect x="623.63" y="155.71" width="6.23" height="7.38"/>
<rect x="612.69" y="155.71" width="6.23" height="7.38"/>
<rect x="601.75" y="155.71" width="6.23" height="7.38"/>
<rect x="361.05" y="155.71" width="6.23" height="7.38"/>
<rect x="350.11" y="155.71" width="6.23" height="7.38"/>
<rect x="339.17" y="155.71" width="6.23" height="7.38"/>
<rect x="328.22" y="155.71" width="6.23" height="7.38"/>
<rect x="317.28" y="155.71" width="6.23" height="7.38"/>
<rect x="306.34" y="155.71" width="6.23" height="7.38"/>
<rect x="295.4" y="155.71" width="6.23" height="7.38"/>
<rect x="284.46" y="155.71" width="6.23" height="7.38"/>
<rect x="273.52" y="155.71" width="6.23" height="7.38"/>
<rect x="262.58" y="155.71" width="6.23" height="7.38"/>
<rect x="251.64" y="155.71" width="6.23" height="7.38"/>
<rect x="240.7" y="155.71" width="6.23" height="7.38"/>
<rect x="229.76" y="155.71" width="6.23" height="7.38"/>
<rect x="218.82" y="155.71" width="6.23" height="7.38"/>
<rect x="207.88" y="155.71" width="6.23" height="7.38"/>
<rect x="196.93" y="155.71" width="6.23" height="7.38"/>
<rect x="185.99" y="155.71" width="6.23" height="7.38"/>
<rect x="175.05" y="155.71" width="6.23" height="7.38"/>
<rect x="164.11" y="155.71" width="6.23" height="7.38"/>
<rect x="153.17" y="155.71" width="6.23" height="7.38"/>
<rect x="1126.91" y="142.74" width="6.23" height="7.38"/>
<rect x="1105.02" y="142.74" width="6.23" height="7.38"/>
<rect x="1094.08" y="142.74" width="6.23" height="7.38"/>
<rect x="1083.14" y="142.74" width="6.23" height="7.38"/>
<rect x="1072.2" y="142.74" width="6.23" height="7.38"/>
<rect x="1061.26" y="142.74" width="6.23" height="7.38"/>
<rect x="1050.32" y="142.74" width="6.23" height="7.38"/>
<rect x="1039.38" y="142.74" width="6.23" height="7.38"/>
<rect x="1028.44" y="142.74" width="6.23" height="7.38"/>
<rect x="1017.5" y="142.74" width="6.23" height="7.38"/>
<rect x="1006.56" y="142.74" width="6.23" height="7.38"/>
<rect x="995.62" y="142.74" width="6.23" height="7.38"/>
<rect x="984.67" y="142.74" width="6.23" height="7.38"/>
<rect x="973.73" y="142.74" width="6.23" height="7.38"/>
<rect x="962.79" y="142.74" width="6.23" height="7.38"/>
<rect x="951.85" y="142.74" width="6.23" height="7.38"/>
<rect x="940.91" y="142.74" width="6.23" height="7.38"/>
<rect x="929.97" y="142.74" width="6.23" height="7.38"/>
<rect x="919.03" y="142.74" width="6.23" height="7.38"/>
<rect x="908.09" y="142.74" width="6.23" height="7.38"/>
<rect x="897.15" y="142.74" width="6.23" height="7.38"/>
<rect x="886.21" y="142.74" width="6.23" height="7.38"/>
<rect x="875.27" y="142.74" width="6.23" height="7.38"/>
<rect x="864.33" y="142.74" width="6.23" height="7.38"/>
<rect x="853.38" y="142.74" width="6.23" height="7.38"/>
<rect x="842.44" y="142.74" width="6.23" height="7.38"/>
<rect x="831.5" y="142.74" width="6.23" height="7.38"/>
<rect x="820.56" y="142.74" width="6.23" height="7.38"/>
<rect x="809.62" y="142.74" width="6.23" height="7.38"/>
<rect x="798.68" y="142.74" width="6.23" height="7.38"/>
<rect x="787.74" y="142.74" width="6.23" height="7.38"/>
<rect x="776.8" y="142.74" width="6.23" height="7.38"/>
<rect x="765.86" y="142.74" width="6.23" height="7.38"/>
<rect x="754.92" y="142.74" width="6.23" height="7.38"/>
<rect x="743.98" y="142.74" width="6.23" height="7.38"/>
<rect x="733.04" y="142.74" width="6.23" height="7.38"/>
<rect x="722.09" y="142.74" width="6.23" height="7.38"/>
<rect x="711.15" y="142.74" width="6.23" height="7.38"/>
<rect x="700.21" y="142.74" width="6.23" height="7.38"/>
<rect x="689.27" y="142.74" width="6.23" height="7.38"/>
<rect x="678.33" y="142.74" width="6.23" height="7.38"/>
<rect x="667.39" y="142.74" width="6.23" height="7.38"/>
<rect x="656.45" y="142.74" width="6.23" height="7.38"/>
<rect x="645.51" y="142.74" width="6.23" height="7.38"/>
<rect x="634.57" y="142.74" width="6.23" height="7.38"/>
<rect x="623.63" y="142.74" width="6.23" height="7.38"/>
<rect x="612.69" y="142.74" width="6.23" height="7.38"/>
<rect x="393.87" y="142.74" width="6.23" height="7.38"/>
<rect x="350.11" y="142.74" width="6.23" height="7.38"/>
<rect x="339.17" y="142.74" width="6.23" height="7.38"/>
<rect x="328.22" y="142.74" width="6.23" height="7.38"/>
<rect x="317.28" y="142.74" width="6.23" height="7.38"/>
<rect x="306.34" y="142.74" width="6.23" height="7.38"/>
<rect x="295.4" y="142.74" width="6.23" height="7.38"/>
<rect x="284.46" y="142.74" width="6.23" height="7.38"/>
<rect x="273.52" y="142.74" width="6.23" height="7.38"/>
<rect x="262.58" y="142.74" width="6.23" height="7.38"/>
<rect x="251.64" y="142.74" width="6.23" height="7.38"/>
<rect x="240.7" y="142.74" width="6.23" height="7.38"/>
<rect x="229.76" y="142.74" width="6.23" height="7.38"/>
<rect x="218.82" y="142.74" width="6.23" height="7.38"/>
<rect x="207.88" y="142.74" width="6.23" height="7.38"/>
<rect x="196.93" y="142.74" width="6.23" height="7.38"/>
<rect x="185.99" y="142.74" width="6.23" height="7.38"/>
<rect x="175.05" y="142.74" width="6.23" height="7.38"/>
<rect x="164.11" y="142.74" width="6.23" height="7.38"/>
<rect x="153.17" y="142.74" width="6.23" height="7.38"/>
<rect x="1181.61" y="129.76" width="6.23" height="7.38"/>
<rect x="1126.91" y="129.76" width="6.23" height="7.38"/>
<rect x="1115.96" y="129.76" width="6.23" height="7.38"/>
<rect x="1105.02" y="129.76" width="6.23" height="7.38"/>
<rect x="1094.08" y="129.76" width="6.23" height="7.38"/>
<rect x="1083.14" y="129.76" width="6.23" height="7.38"/>
<rect x="1072.2" y="129.76" width="6.23" height="7.38"/>
<rect x="1061.26" y="129.76" width="6.23" height="7.38"/>
<rect x="1050.32" y="129.76" width="6.23" height="7.38"/>
<rect x="1039.38" y="129.76" width="6.23" height="7.38"/>
<rect x="1028.44" y="129.76" width="6.23" height="7.38"/>
<rect x="1017.5" y="129.76" width="6.23" height="7.38"/>
<rect x="1006.56" y="129.76" width="6.23" height="7.38"/>
<rect x="984.67" y="129.76" width="6.23" height="7.38"/>
<rect x="973.73" y="129.76" width="6.23" height="7.38"/>
<rect x="962.79" y="129.76" width="6.23" height="7.38"/>
<rect x="951.85" y="129.76" width="6.23" height="7.38"/>
<rect x="940.91" y="129.76" width="6.23" height="7.38"/>
<rect x="929.97" y="129.76" width="6.23" height="7.38"/>
<rect x="919.03" y="129.76" width="6.23" height="7.38"/>
<rect x="908.09" y="129.76" width="6.23" height="7.38"/>
<rect x="897.15" y="129.76" width="6.23" height="7.38"/>
<rect x="886.21" y="129.76" width="6.23" height="7.38"/>
<rect x="875.27" y="129.76" width="6.23" height="7.38"/>
<rect x="864.33" y="129.76" width="6.23" height="7.38"/>
<rect x="853.38" y="129.76" width="6.23" height="7.38"/>
<rect x="842.44" y="129.76" width="6.23" height="7.38"/>
<rect x="831.5" y="129.76" width="6.23" height="7.38"/>
<rect x="820.56" y="129.76" width="6.23" height="7.38"/>
<rect x="809.62" y="129.76" width="6.23" height="7.38"/>
<rect x="798.68" y="129.76" width="6.23" height="7.38"/>
<rect x="787.74" y="129.76" width="6.23" height="7.38"/>
<rect x="776.8" y="129.76" width="6.23" height="7.38"/>
<rect x="765.86" y="129.76" width="6.23" height="7.38"/>
<rect x="754.92" y="129.76" width="6.23" height="7.38"/>
<rect x="743.98" y="129.76" width="6.23" height="7.38"/>
<rect x="733.04" y="129.76" width="6.23" height="7.38"/>
<rect x="722.09" y="129.76" width="6.23" height="7.38"/>
<rect x="711.15" y="129.76" width="6.23" height="7.38"/>
<rect x="700.21" y="129.76" width="6.23" height="7.38"/>
<rect x="689.27" y="129.76" width="6.23" height="7.38"/>
<rect x="678.33" y="129.76" width="6.23" height="7.38"/>
<rect x="667.39" y="129.76" width="6.23" height="7.38"/>
<rect x="656.45" y="129.76" width="6.23" height="7.38"/>
<rect x="645.51" y="129.76" width="6.23" height="7.38"/>
<rect x="634.57" y="129.76" width="6.23" height="7.38"/>
<rect x="623.63" y="129.76" width="6.23" height="7.38"/>
<rect x="601.75" y="129.76" width="6.23" height="7.38"/>
<rect x="590.8" y="129.76" width="6.23" height="7.38"/>
<rect x="568.92" y="129.76" width="6.23" height="7.38"/>
<rect x="393.87" y="129.76" width="6.23" height="7.38"/>
<rect x="382.93" y="129.76" width="6.23" height="7.38"/>
<rect x="371.99" y="129.76" width="6.23" height="7.38"/>
<rect x="361.05" y="129.76" width="6.23" height="7.38"/>
<rect x="350.11" y="129.76" width="6.23" height="7.38"/>
<rect x="339.17" y="129.76" width="6.23" height="7.38"/>
<rect x="328.22" y="129.76" width="6.23" height="7.38"/>
<rect x="317.28" y="129.76" width="6.23" height="7.38"/>
<rect x="295.4" y="129.76" width="6.23" height="7.38"/>
<rect x="284.46" y="129.76" width="6.23" height="7.38"/>
<rect x="273.52" y="129.76" width="6.23" height="7.38"/>
<rect x="262.58" y="129.76" width="6.23" height="7.38"/>
<rect x="251.64" y="129.76" width="6.23" height="7.38"/>
<rect x="229.76" y="129.76" width="6.23" height="7.38"/>
<rect x="218.82" y="129.76" width="6.23" height="7.38"/>
<rect x="207.88" y="129.76" width="6.23" height="7.38"/>
<rect x="196.93" y="129.76" width="6.23" height="7.38"/>
<rect x="185.99" y="129.76" width="6.23" height="7.38"/>
<rect x="175.05" y="129.76" width="6.23" height="7.38"/>
<rect x="164.11" y="129.76" width="6.23" height="7.38"/>
<rect x="153.17" y="129.76" width="6.23" height="7.38"/>
<rect x="142.23" y="129.76" width="6.23" height="7.38"/>
<rect x="131.29" y="129.76" width="6.23" height="7.38"/>
<rect x="1192.55" y="116.78" width="6.23" height="7.38"/>
<rect x="1181.61" y="116.78" width="6.23" height="7.38"/>
<rect x="1094.08" y="116.78" width="6.23" height="7.38"/>
<rect x="1083.14" y="116.78" width="6.23" height="7.38"/>
<rect x="1072.2" y="116.78" width="6.23" height="7.38"/>
<rect x="1061.26" y="116.78" width="6.23" height="7.38"/>
<rect x="1050.32" y="116.78" width="6.23" height="7.38"/>
<rect x="1039.38" y="116.78" width="6.23" height="7.38"/>
<rect x="1028.44" y="116.78" width="6.23" height="7.38"/>
<rect x="1017.5" y="116.78" width="6.23" height="7.38"/>
<rect x="1006.56" y="116.78" width="6.23" height="7.38"/>
<rect x="995.62" y="116.78" width="6.23" height="7.38"/>
<rect x="984.67" y="116.78" width="6.23" height="7.38"/>
<rect x="973.73" y="116.78" width="6.23" height="7.38"/>
<rect x="962.79" y="116.78" width="6.23" height="7.38"/>
<rect x="951.85" y="116.78" width="6.23" height="7.38"/>
<rect x="940.91" y="116.78" width="6.23" height="7.38"/>
<rect x="929.97" y="116.78" width="6.23" height="7.38"/>
<rect x="919.03" y="116.78" width="6.23" height="7.38"/>
<rect x="908.09" y="116.78" width="6.23" height="7.38"/>
<rect x="897.15" y="116.78" width="6.23" height="7.38"/>
<rect x="886.21" y="116.78" width="6.23" height="7.38"/>
<rect x="875.27" y="116.78" width="6.23" height="7.38"/>
<rect x="864.33" y="116.78" width="6.23" height="7.38"/>
<rect x="853.38" y="116.78" width="6.23" height="7.38"/>
<rect x="842.44" y="116.78" width="6.23" height="7.38"/>
<rect x="831.5" y="116.78" width="6.23" height="7.38"/>
<rect x="820.56" y="116.78" width="6.23" height="7.38"/>
<rect x="809.62" y="116.78" width="6.23" height="7.38"/>
<rect x="798.68" y="116.78" width="6.23" height="7.38"/>
<rect x="787.74" y="116.78" width="6.23" height="7.38"/>
<rect x="776.8" y="116.78" width="6.23" height="7.38"/>
<rect x="765.86" y="116.78" width="6.23" height="7.38"/>
<rect x="754.92" y="116.78" width="6.23" height="7.38"/>
<rect x="743.98" y="116.78" width="6.23" height="7.38"/>
<rect x="733.04" y="116.78" width="6.23" height="7.38"/>
<rect x="722.09" y="116.78" width="6.23" height="7.38"/>
<rect x="711.15" y="116.78" width="6.23" height="7.38"/>
<rect x="700.21" y="116.78" width="6.23" height="7.38"/>
<rect x="689.27" y="116.78" width="6.23" height="7.38"/>
<rect x="634.57" y="116.78" width="6.23" height="7.38"/>
<rect x="590.8" y="116.78" width="6.23" height="7.38"/>
<rect x="371.99" y="116.78" width="6.23" height="7.38"/>
<rect x="361.05" y="116.78" width="6.23" height="7.38"/>
<rect x="350.11" y="116.78" width="6.23" height="7.38"/>
<rect x="339.17" y="116.78" width="6.23" height="7.38"/>
<rect x="328.22" y="116.78" width="6.23" height="7.38"/>
<rect x="273.52" y="116.78" width="6.23" height="7.38"/>
<rect x="262.58" y="116.78" width="6.23" height="7.38"/>
<rect x="251.64" y="116.78" width="6.23" height="7.38"/>
<rect x="240.7" y="116.78" width="6.23" height="7.38"/>
<rect x="229.76" y="116.78" width="6.23" height="7.38"/>
<rect x="218.82" y="116.78" width="6.23" height="7.38"/>
<rect x="207.88" y="116.78" width="6.23" height="7.38"/>
<rect x="196.93" y="116.78" width="6.23" height="7.38"/>
<rect x="185.99" y="116.78" width="6.23" height="7.38"/>
<rect x="175.05" y="116.78" width="6.23" height="7.38"/>
<rect x="164.11" y="116.78" width="6.23" height="7.38"/>
<rect x="153.17" y="116.78" width="6.23" height="7.38"/>
<rect x="142.23" y="116.78" width="6.23" height="7.38"/>
<rect x="131.29" y="116.78" width="6.23" height="7.38"/>
<rect x="120.35" y="116.78" width="6.23" height="7.38"/>
<rect x="1192.55" y="103.81" width="6.23" height="7.38"/>
<rect x="1115.96" y="103.81" width="6.23" height="7.38"/>
<rect x="1105.02" y="103.81" width="6.23" height="7.38"/>
<rect x="1094.08" y="103.81" width="6.23" height="7.38"/>
<rect x="1083.14" y="103.81" width="6.23" height="7.38"/>
<rect x="1072.2" y="103.81" width="6.23" height="7.38"/>
<rect x="1061.26" y="103.81" width="6.23" height="7.38"/>
<rect x="1050.32" y="103.81" width="6.23" height="7.38"/>
<rect x="1039.38" y="103.81" width="6.23" height="7.38"/>
<rect x="1028.44" y="103.81" width="6.23" height="7.38"/>
<rect x="1017.5" y="103.81" width="6.23" height="7.38"/>
<rect x="1006.56" y="103.81" width="6.23" height="7.38"/>
<rect x="995.62" y="103.81" width="6.23" height="7.38"/>
<rect x="984.67" y="103.81" width="6.23" height="7.38"/>
<rect x="973.73" y="103.81" width="6.23" height="7.38"/>
<rect x="962.79" y="103.81" width="6.23" height="7.38"/>
<rect x="951.85" y="103.81" width="6.23" height="7.38"/>
<rect x="940.91" y="103.81" width="6.23" height="7.38"/>
<rect x="929.97" y="103.81" width="6.23" height="7.38"/>
<rect x="919.03" y="103.81" width="6.23" height="7.38"/>
<rect x="908.09" y="103.81" width="6.23" height="7.38"/>
<rect x="897.15" y="103.81" width="6.23" height="7.38"/>
<rect x="886.21" y="103.81" width="6.23" height="7.38"/>
<rect x="875.27" y="103.81" width="6.23" height="7.38"/>
<rect x="864.33" y="103.81" width="6.23" height="7.38"/>
<rect x="853.38" y="103.81" width="6.23" height="7.38"/>
<rect x="842.44" y="103.81" width="6.23" height="7.38"/>
<rect x="831.5" y="103.81" width="6.23" height="7.38"/>
<rect x="820.56" y="103.81" width="6.23" height="7.38"/>
<rect x="809.62" y="103.81" width="6.23" height="7.38"/>
<rect x="798.68" y="103.81" width="6.23" height="7.38"/>
<rect x="787.74" y="103.81" width="6.23" height="7.38"/>
<rect x="776.8" y="103.81" width="6.23" height="7.38"/>
<rect x="765.86" y="103.81" width="6.23" height="7.38"/>
<rect x="754.92" y="103.81" width="6.23" height="7.38"/>
<rect x="743.98" y="103.81" width="6.23" height="7.38"/>
<rect x="733.04" y="103.81" width="6.23" height="7.38"/>
<rect x="722.09" y="103.81" width="6.23" height="7.38"/>
<rect x="711.15" y="103.81" width="6.23" height="7.38"/>
<rect x="700.21" y="103.81" width="6.23" height="7.38"/>
<rect x="689.27" y="103.81" width="6.23" height="7.38"/>
<rect x="656.45" y="103.81" width="6.23" height="7.38"/>
<rect x="645.51" y="103.81" width="6.23" height="7.38"/>
<rect x="361.05" y="103.81" width="6.23" height="7.38"/>
<rect x="350.11" y="103.81" width="6.23" height="7.38"/>
<rect x="339.17" y="103.81" width="6.23" height="7.38"/>
<rect x="328.22" y="103.81" width="6.23" height="7.38"/>
<rect x="251.64" y="103.81" width="6.23" height="7.38"/>
<rect x="240.7" y="103.81" width="6.23" height="7.38"/>
<rect x="229.76" y="103.81" width="6.23" height="7.38"/>
<rect x="218.82" y="103.81" width="6.23" height="7.38"/>
<rect x="207.88" y="103.81" width="6.23" height="7.38"/>
<rect x="196.93" y="103.81" width="6.23" height="7.38"/>
<rect x="185.99" y="103.81" width="6.23" height="7.38"/>
<rect x="175.05" y="103.81" width="6.23" height="7.38"/>
<rect x="164.11" y="103.81" width="6.23" height="7.38"/>
<rect x="153.17" y="103.81" width="6.23" height="7.38"/>
<rect x="142.23" y="103.81" width="6.23" height="7.38"/>
<rect x="131.29" y="103.81" width="6.23" height="7.38"/>
<rect x="120.35" y="103.81" width="6.23" height="7.38"/>
<rect x="109.41" y="103.81" width="6.23" height="7.38"/>
<rect x="32.82" y="103.81" width="6.23" height="7.38"/>
<rect x="1225.37" y="90.83" width="6.23" height="7.38"/>
<rect x="1214.43" y="90.83" width="6.23" height="7.38"/>
<rect x="1203.49" y="90.83" width="6.23" height="7.38"/>
<rect x="1192.55" y="90.83" width="6.23" height="7.38"/>
<rect x="1170.67" y="90.83" width="6.23" height="7.38"/>
<rect x="1159.73" y="90.83" width="6.23" height="7.38"/>
<rect x="1148.79" y="90.83" width="6.23" height="7.38"/>
<rect x="1137.85" y="90.83" width="6.23" height="7.38"/>
<rect x="1126.91" y="90.83" width="6.23" height="7.38"/>
<rect x="1115.96" y="90.83" width="6.23" height="7.38"/>
<rect x="1105.02" y="90.83" width="6.23" height="7.38"/>
<rect x="1094.08" y="90.83" width="6.23" height="7.38"/>
<rect x="1083.14" y="90.83" width="6.23" height="7.38"/>
<rect x="1072.2" y="90.83" width="6.23" height="7.38"/>
<rect x="1061.26" y="90.83" width="6.23" height="7.38"/>
<rect x="1050.32" y="90.83" width="6.23" height="7.38"/>
<rect x="1039.38" y="90.83" width="6.23" height="7.38"/>
<rect x="1028.44" y="90.83" width="6.23" height="7.38"/>
<rect x="1017.5" y="90.83" width="6.23" height="7.38"/>
<rect x="1006.56" y="90.83" width="6.23" height="7.38"/>
<rect x="995.62" y="90.83" width="6.23" height="7.38"/>
<rect x="984.67" y="90.83" width="6.23" height="7.38"/>
<rect x="973.73" y="90.83" width="6.23" height="7.38"/>
<rect x="962.79" y="90.83" width="6.23" height="7.38"/>
<rect x="951.85" y="90.83" width="6.23" height="7.38"/>
<rect x="940.91" y="90.83" width="6.23" height="7.38"/>
<rect x="929.97" y="90.83" width="6.23" height="7.38"/>
<rect x="919.03" y="90.83" width="6.23" height="7.38"/>
<rect x="908.09" y="90.83" width="6.23" height="7.38"/>
<rect x="897.15" y="90.83" width="6.23" height="7.38"/>
<rect x="886.21" y="90.83" width="6.23" height="7.38"/>
<rect x="875.27" y="90.83" width="6.23" height="7.38"/>
<rect x="864.33" y="90.83" width="6.23" height="7.38"/>
<rect x="853.38" y="90.83" width="6.23" height="7.38"/>
<rect x="842.44" y="90.83" width="6.23" height="7.38"/>
<rect x="831.5" y="90.83" width="6.23" height="7.38"/>
<rect x="820.56" y="90.83" width="6.23" height="7.38"/>
<rect x="809.62" y="90.83" width="6.23" height="7.38"/>
<rect x="798.68" y="90.83" width="6.23" height="7.38"/>
<rect x="787.74" y="90.83" width="6.23" height="7.38"/>
<rect x="776.8" y="90.83" width="6.23" height="7.38"/>
<rect x="765.86" y="90.83" width="6.23" height="7.38"/>
<rect x="754.92" y="90.83" width="6.23" height="7.38"/>
<rect x="743.98" y="90.83" width="6.23" height="7.38"/>
<rect x="733.04" y="90.83" width="6.23" height="7.38"/>
<rect x="722.09" y="90.83" width="6.23" height="7.38"/>
<rect x="711.15" y="90.83" width="6.23" height="7.38"/>
<rect x="700.21" y="90.83" width="6.23" height="7.38"/>
<rect x="689.27" y="90.83" width="6.23" height="7.38"/>
<rect x="656.45" y="90.83" width="6.23" height="7.38"/>
<rect x="645.51" y="90.83" width="6.23" height="7.38"/>
<rect x="634.57" y="90.83" width="6.23" height="7.38"/>
<rect x="623.63" y="90.83" width="6.23" height="7.38"/>
<rect x="437.63" y="90.83" width="6.23" height="7.38"/>
<rect x="426.69" y="90.83" width="6.23" height="7.38"/>
<rect x="328.22" y="90.83" width="6.23" height="7.38"/>
<rect x="317.28" y="90.83" width="6.23" height="7.38"/>
<rect x="251.64" y="90.83" width="6.23" height="7.38"/>
<rect x="240.7" y="90.83" width="6.23" height="7.38"/>
<rect x="229.76" y="90.83" width="6.23" height="7.38"/>
<rect x="218.82" y="90.83" width="6.23" height="7.38"/>
<rect x="207.88" y="90.83" width="6.23" height="7.38"/>
<rect x="196.93" y="90.83" width="6.23" height="7.38"/>
<rect x="164.11" y="90.83" width="6.23" height="7.38"/>
<rect x="153.17" y="90.83" width="6.23" height="7.38"/>
<rect x="142.23" y="90.83" width="6.23" height="7.38"/>
<rect x="131.29" y="90.83" width="6.23" height="7.38"/>
<rect x="120.35" y="90.83" width="6.23" height="7.38"/>
<rect x="109.41" y="90.83" width="6.23" height="7.38"/>
<rect x="98.47" y="90.83" width="6.23" height="7.38"/>
<rect x="87.53" y="90.83" width="6.23" height="7.38"/>
<rect x="76.59" y="90.83" width="6.23" height="7.38"/>
<rect x="65.64" y="90.83" width="6.23" height="7.38"/>
<rect x="54.7" y="90.83" width="6.23" height="7.38"/>
<rect x="43.76" y="90.83" width="6.23" height="7.38"/>
<rect x="32.82" y="90.83" width="6.23" height="7.38"/>
<rect x="21.88" y="90.83" width="6.23" height="7.38"/>
<rect x="10.94" y="90.83" width="6.23" height="7.38"/>
<rect y="90.83" width="6.23" height="7.38"/>
<rect x="1280.08" y="77.86" width="6.23" height="7.38"/>
<rect x="1258.2" y="77.86" width="6.23" height="7.38"/>
<rect x="1247.25" y="77.86" width="6.23" height="7.38"/>
<rect x="1236.31" y="77.86" width="6.23" height="7.38"/>
<rect x="1225.37" y="77.86" width="6.23" height="7.38"/>
<rect x="1214.43" y="77.86" width="6.23" height="7.38"/>
<rect x="1203.49" y="77.86" width="6.23" height="7.38"/>
<rect x="1192.55" y="77.86" width="6.23" height="7.38"/>
<rect x="1181.61" y="77.86" width="6.23" height="7.38"/>
<rect x="1170.67" y="77.86" width="6.23" height="7.38"/>
<rect x="1159.73" y="77.86" width="6.23" height="7.38"/>
<rect x="1148.79" y="77.86" width="6.23" height="7.38"/>
<rect x="1137.85" y="77.86" width="6.23" height="7.38"/>
<rect x="1126.91" y="77.86" width="6.23" height="7.38"/>
<rect x="1115.96" y="77.86" width="6.23" height="7.38"/>
<rect x="1105.02" y="77.86" width="6.23" height="7.38"/>
<rect x="1094.08" y="77.86" width="6.23" height="7.38"/>
<rect x="1083.14" y="77.86" width="6.23" height="7.38"/>
<rect x="1072.2" y="77.86" width="6.23" height="7.38"/>
<rect x="1061.26" y="77.86" width="6.23" height="7.38"/>
<rect x="1050.32" y="77.86" width="6.23" height="7.38"/>
<rect x="1039.38" y="77.86" width="6.23" height="7.38"/>
<rect x="1028.44" y="77.86" width="6.23" height="7.38"/>
<rect x="1017.5" y="77.86" width="6.23" height="7.38"/>
<rect x="1006.56" y="77.86" width="6.23" height="7.38"/>
<rect x="995.62" y="77.86" width="6.23" height="7.38"/>
<rect x="984.67" y="77.86" width="6.23" height="7.38"/>
<rect x="973.73" y="77.86" width="6.23" height="7.38"/>
<rect x="962.79" y="77.86" width="6.23" height="7.38"/>
<rect x="951.85" y="77.86" width="6.23" height="7.38"/>
<rect x="940.91" y="77.86" width="6.23" height="7.38"/>
<rect x="929.97" y="77.86" width="6.23" height="7.38"/>
<rect x="919.03" y="77.86" width="6.23" height="7.38"/>
<rect x="908.09" y="77.86" width="6.23" height="7.38"/>
<rect x="897.15" y="77.86" width="6.23" height="7.38"/>
<rect x="886.21" y="77.86" width="6.23" height="7.38"/>
<rect x="875.27" y="77.86" width="6.23" height="7.38"/>
<rect x="864.33" y="77.86" width="6.23" height="7.38"/>
<rect x="853.38" y="77.86" width="6.23" height="7.38"/>
<rect x="842.44" y="77.86" width="6.23" height="7.38"/>
<rect x="831.5" y="77.86" width="6.23" height="7.38"/>
<rect x="820.56" y="77.86" width="6.23" height="7.38"/>
<rect x="809.62" y="77.86" width="6.23" height="7.38"/>
<rect x="798.68" y="77.86" width="6.23" height="7.38"/>
<rect x="787.74" y="77.86" width="6.23" height="7.38"/>
<rect x="776.8" y="77.86" width="6.23" height="7.38"/>
<rect x="765.86" y="77.86" width="6.23" height="7.38"/>
<rect x="754.92" y="77.86" width="6.23" height="7.38"/>
<rect x="722.09" y="77.86" width="6.23" height="7.38"/>
<rect x="711.15" y="77.86" width="6.23" height="7.38"/>
<rect x="700.21" y="77.86" width="6.23" height="7.38"/>
<rect x="678.33" y="77.86" width="6.23" height="7.38"/>
<rect x="667.39" y="77.86" width="6.23" height="7.38"/>
<rect x="656.45" y="77.86" width="6.23" height="7.38"/>
<rect x="645.51" y="77.86" width="6.23" height="7.38"/>
<rect x="547.04" y="77.86" width="6.23" height="7.38"/>
<rect x="536.1" y="77.86" width="6.23" height="7.38"/>
<rect x="525.16" y="77.86" width="6.23" height="7.38"/>
<rect x="448.57" y="77.86" width="6.23" height="7.38"/>
<rect x="437.63" y="77.86" width="6.23" height="7.38"/>
<rect x="426.69" y="77.86" width="6.23" height="7.38"/>
<rect x="415.75" y="77.86" width="6.23" height="7.38"/>
<rect x="350.11" y="77.86" width="6.23" height="7.38"/>
<rect x="339.17" y="77.86" width="6.23" height="7.38"/>
<rect x="328.22" y="77.86" width="6.23" height="7.38"/>
<rect x="317.28" y="77.86" width="6.23" height="7.38"/>
<rect x="273.52" y="77.86" width="6.23" height="7.38"/>
<rect x="262.58" y="77.86" width="6.23" height="7.38"/>
<rect x="251.64" y="77.86" width="6.23" height="7.38"/>
<rect x="240.7" y="77.86" width="6.23" height="7.38"/>
<rect x="229.76" y="77.86" width="6.23" height="7.38"/>
<rect x="218.82" y="77.86" width="6.23" height="7.38"/>
<rect x="207.88" y="77.86" width="6.23" height="7.38"/>
<rect x="196.93" y="77.86" width="6.23" height="7.38"/>
<rect x="185.99" y="77.86" width="6.23" height="7.38"/>
<rect x="175.05" y="77.86" width="6.23" height="7.38"/>
<rect x="164.11" y="77.86" width="6.23" height="7.38"/>
<rect x="142.23" y="77.86" width="6.23" height="7.38"/>
<rect x="131.29" y="77.86" width="6.23" height="7.38"/>
<rect x="120.35" y="77.86" width="6.23" height="7.38"/>
<rect x="109.41" y="77.86" width="6.23" height="7.38"/>
<rect x="98.47" y="77.86" width="6.23" height="7.38"/>
<rect x="87.53" y="77.86" width="6.23" height="7.38"/>
<rect x="76.59" y="77.86" width="6.23" height="7.38"/>
<rect x="65.64" y="77.86" width="6.23" height="7.38"/>
<rect x="54.7" y="77.86" width="6.23" height="7.38"/>
<rect x="43.76" y="77.86" width="6.23" height="7.38"/>
<rect x="32.82" y="77.86" width="6.23" height="7.38"/>
<rect x="21.88" y="77.86" width="6.23" height="7.38"/>
<rect y="77.86" width="6.23" height="7.38"/>
<rect x="1269.14" y="64.88" width="6.23" height="7.38"/>
<rect x="1258.2" y="64.88" width="6.23" height="7.38"/>
<rect x="1247.25" y="64.88" width="6.23" height="7.38"/>
<rect x="1236.31" y="64.88" width="6.23" height="7.38"/>
<rect x="1225.37" y="64.88" width="6.23" height="7.38"/>
<rect x="1214.43" y="64.88" width="6.23" height="7.38"/>
<rect x="1203.49" y="64.88" width="6.23" height="7.38"/>
<rect x="1192.55" y="64.88" width="6.23" height="7.38"/>
<rect x="1181.61" y="64.88" width="6.23" height="7.38"/>
<rect x="1170.67" y="64.88" width="6.23" height="7.38"/>
<rect x="1159.73" y="64.88" width="6.23" height="7.38"/>
<rect x="1148.79" y="64.88" width="6.23" height="7.38"/>
<rect x="1137.85" y="64.88" width="6.23" height="7.38"/>
<rect x="1126.91" y="64.88" width="6.23" height="7.38"/>
<rect x="1115.96" y="64.88" width="6.23" height="7.38"/>
<rect x="1105.02" y="64.88" width="6.23" height="7.38"/>
<rect x="1094.08" y="64.88" width="6.23" height="7.38"/>
<rect x="1083.14" y="64.88" width="6.23" height="7.38"/>
<rect x="1072.2" y="64.88" width="6.23" height="7.38"/>
<rect x="1061.26" y="64.88" width="6.23" height="7.38"/>
<rect x="1050.32" y="64.88" width="6.23" height="7.38"/>
<rect x="1039.38" y="64.88" width="6.23" height="7.38"/>
<rect x="1028.44" y="64.88" width="6.23" height="7.38"/>
<rect x="1017.5" y="64.88" width="6.23" height="7.38"/>
<rect x="1006.56" y="64.88" width="6.23" height="7.38"/>
<rect x="995.62" y="64.88" width="6.23" height="7.38"/>
<rect x="984.67" y="64.88" width="6.23" height="7.38"/>
<rect x="973.73" y="64.88" width="6.23" height="7.38"/>
<rect x="962.79" y="64.88" width="6.23" height="7.38"/>
<rect x="951.85" y="64.88" width="6.23" height="7.38"/>
<rect x="940.91" y="64.88" width="6.23" height="7.38"/>
<rect x="929.97" y="64.88" width="6.23" height="7.38"/>
<rect x="919.03" y="64.88" width="6.23" height="7.38"/>
<rect x="908.09" y="64.88" width="6.23" height="7.38"/>
<rect x="897.15" y="64.88" width="6.23" height="7.38"/>
<rect x="886.21" y="64.88" width="6.23" height="7.38"/>
<rect x="864.33" y="64.88" width="6.23" height="7.38"/>
<rect x="853.38" y="64.88" width="6.23" height="7.38"/>
<rect x="842.44" y="64.88" width="6.23" height="7.38"/>
<rect x="831.5" y="64.88" width="6.23" height="7.38"/>
<rect x="820.56" y="64.88" width="6.23" height="7.38"/>
<rect x="809.62" y="64.88" width="6.23" height="7.38"/>
<rect x="798.68" y="64.88" width="6.23" height="7.38"/>
<rect x="787.74" y="64.88" width="6.23" height="7.38"/>
<rect x="765.86" y="64.88" width="6.23" height="7.38"/>
<rect x="743.98" y="64.88" width="6.23" height="7.38"/>
<rect x="733.04" y="64.88" width="6.23" height="7.38"/>
<rect x="722.09" y="64.88" width="6.23" height="7.38"/>
<rect x="711.15" y="64.88" width="6.23" height="7.38"/>
<rect x="700.21" y="64.88" width="6.23" height="7.38"/>
<rect x="689.27" y="64.88" width="6.23" height="7.38"/>
<rect x="678.33" y="64.88" width="6.23" height="7.38"/>
<rect x="667.39" y="64.88" width="6.23" height="7.38"/>
<rect x="481.4" y="64.88" width="6.23" height="7.38"/>
<rect x="470.46" y="64.88" width="6.23" height="7.38"/>
<rect x="459.51" y="64.88" width="6.23" height="7.38"/>
<rect x="448.57" y="64.88" width="6.23" height="7.38"/>
<rect x="437.63" y="64.88" width="6.23" height="7.38"/>
<rect x="426.69" y="64.88" width="6.23" height="7.38"/>
<rect x="415.75" y="64.88" width="6.23" height="7.38"/>
<rect x="350.11" y="64.88" width="6.23" height="7.38"/>
<rect x="339.17" y="64.88" width="6.23" height="7.38"/>
<rect x="328.22" y="64.88" width="6.23" height="7.38"/>
<rect x="295.4" y="64.88" width="6.23" height="7.38"/>
<rect x="273.52" y="64.88" width="6.23" height="7.38"/>
<rect x="262.58" y="64.88" width="6.23" height="7.38"/>
<rect x="240.7" y="64.88" width="6.23" height="7.38"/>
<rect x="207.88" y="64.88" width="6.23" height="7.38"/>
<rect x="175.05" y="64.88" width="6.23" height="7.38"/>
<rect x="164.11" y="64.88" width="6.23" height="7.38"/>
<rect x="153.17" y="64.88" width="6.23" height="7.38"/>
<rect x="142.23" y="64.88" width="6.23" height="7.38"/>
<rect x="131.29" y="64.88" width="6.23" height="7.38"/>
<rect x="120.35" y="64.88" width="6.23" height="7.38"/>
<rect x="109.41" y="64.88" width="6.23" height="7.38"/>
<rect x="98.47" y="64.88" width="6.23" height="7.38"/>
<rect x="87.53" y="64.88" width="6.23" height="7.38"/>
<rect x="76.59" y="64.88" width="6.23" height="7.38"/>
<rect x="65.64" y="64.88" width="6.23" height="7.38"/>
<rect x="54.7" y="64.88" width="6.23" height="7.38"/>
<rect x="43.76" y="64.88" width="6.23" height="7.38"/>
<rect x="32.82" y="64.88" width="6.23" height="7.38"/>
<rect x="21.88" y="64.88" width="6.23" height="7.38"/>
<rect x="10.94" y="64.88" width="6.23" height="7.38"/>
<rect y="64.88" width="6.23" height="7.38"/>
<rect x="1192.55" y="51.9" width="6.23" height="7.38"/>
<rect x="1181.61" y="51.9" width="6.23" height="7.38"/>
<rect x="1170.67" y="51.9" width="6.23" height="7.38"/>
<rect x="1159.73" y="51.9" width="6.23" height="7.38"/>
<rect x="1148.79" y="51.9" width="6.23" height="7.38"/>
<rect x="1137.85" y="51.9" width="6.23" height="7.38"/>
<rect x="1126.91" y="51.9" width="6.23" height="7.38"/>
<rect x="1115.96" y="51.9" width="6.23" height="7.38"/>
<rect x="1105.02" y="51.9" width="6.23" height="7.38"/>
<rect x="1094.08" y="51.9" width="6.23" height="7.38"/>
<rect x="1083.14" y="51.9" width="6.23" height="7.38"/>
<rect x="1072.2" y="51.9" width="6.23" height="7.38"/>
<rect x="1061.26" y="51.9" width="6.23" height="7.38"/>
<rect x="1050.32" y="51.9" width="6.23" height="7.38"/>
<rect x="1039.38" y="51.9" width="6.23" height="7.38"/>
<rect x="1028.44" y="51.9" width="6.23" height="7.38"/>
<rect x="1017.5" y="51.9" width="6.23" height="7.38"/>
<rect x="1006.56" y="51.9" width="6.23" height="7.38"/>
<rect x="995.62" y="51.9" width="6.23" height="7.38"/>
<rect x="984.67" y="51.9" width="6.23" height="7.38"/>
<rect x="973.73" y="51.9" width="6.23" height="7.38"/>
<rect x="962.79" y="51.9" width="6.23" height="7.38"/>
<rect x="951.85" y="51.9" width="6.23" height="7.38"/>
<rect x="940.91" y="51.9" width="6.23" height="7.38"/>
<rect x="929.97" y="51.9" width="6.23" height="7.38"/>
<rect x="919.03" y="51.9" width="6.23" height="7.38"/>
<rect x="908.09" y="51.9" width="6.23" height="7.38"/>
<rect x="897.15" y="51.9" width="6.23" height="7.38"/>
<rect x="886.21" y="51.9" width="6.23" height="7.38"/>
<rect x="875.27" y="51.9" width="6.23" height="7.38"/>
<rect x="864.33" y="51.9" width="6.23" height="7.38"/>
<rect x="853.38" y="51.9" width="6.23" height="7.38"/>
<rect x="711.15" y="51.9" width="6.23" height="7.38"/>
<rect x="700.21" y="51.9" width="6.23" height="7.38"/>
<rect x="689.27" y="51.9" width="6.23" height="7.38"/>
<rect x="514.22" y="51.9" width="6.23" height="7.38"/>
<rect x="503.28" y="51.9" width="6.23" height="7.38"/>
<rect x="492.34" y="51.9" width="6.23" height="7.38"/>
<rect x="481.4" y="51.9" width="6.23" height="7.38"/>
<rect x="470.46" y="51.9" width="6.23" height="7.38"/>
<rect x="459.51" y="51.9" width="6.23" height="7.38"/>
<rect x="448.57" y="51.9" width="6.23" height="7.38"/>
<rect x="437.63" y="51.9" width="6.23" height="7.38"/>
<rect x="426.69" y="51.9" width="6.23" height="7.38"/>
<rect x="415.75" y="51.9" width="6.23" height="7.38"/>
<rect x="404.81" y="51.9" width="6.23" height="7.38"/>
<rect x="350.11" y="51.9" width="6.23" height="7.38"/>
<rect x="339.17" y="51.9" width="6.23" height="7.38"/>
<rect x="328.22" y="51.9" width="6.23" height="7.38"/>
<rect x="317.28" y="51.9" width="6.23" height="7.38"/>
<rect x="306.34" y="51.9" width="6.23" height="7.38"/>
<rect x="295.4" y="51.9" width="6.23" height="7.38"/>
<rect x="251.64" y="51.9" width="6.23" height="7.38"/>
<rect x="218.82" y="51.9" width="6.23" height="7.38"/>
<rect x="207.88" y="51.9" width="6.23" height="7.38"/>
<rect x="196.93" y="51.9" width="6.23" height="7.38"/>
<rect x="185.99" y="51.9" width="6.23" height="7.38"/>
<rect x="175.05" y="51.9" width="6.23" height="7.38"/>
<rect x="131.29" y="51.9" width="6.23" height="7.38"/>
<rect x="43.76" y="51.9" width="6.23" height="7.38"/>
<rect x="32.82" y="51.9" width="6.23" height="7.38"/>
<rect x="21.88" y="51.9" width="6.23" height="7.38"/>
<rect x="1115.96" y="38.93" width="6.23" height="7.38"/>
<rect x="1061.26" y="38.93" width="6.23" height="7.38"/>
<rect x="1028.44" y="38.93" width="6.23" height="7.38"/>
<rect x="1017.5" y="38.93" width="6.23" height="7.38"/>
<rect x="1006.56" y="38.93" width="6.23" height="7.38"/>
<rect x="995.62" y="38.93" width="6.23" height="7.38"/>
<rect x="984.67" y="38.93" width="6.23" height="7.38"/>
<rect x="973.73" y="38.93" width="6.23" height="7.38"/>
<rect x="962.79" y="38.93" width="6.23" height="7.38"/>
<rect x="951.85" y="38.93" width="6.23" height="7.38"/>
<rect x="940.91" y="38.93" width="6.23" height="7.38"/>
<rect x="929.97" y="38.93" width="6.23" height="7.38"/>
<rect x="919.03" y="38.93" width="6.23" height="7.38"/>
<rect x="798.68" y="38.93" width="6.23" height="7.38"/>
<rect x="514.22" y="38.93" width="6.23" height="7.38"/>
<rect x="503.28" y="38.93" width="6.23" height="7.38"/>
<rect x="492.34" y="38.93" width="6.23" height="7.38"/>
<rect x="481.4" y="38.93" width="6.23" height="7.38"/>
<rect x="470.46" y="38.93" width="6.23" height="7.38"/>
<rect x="459.51" y="38.93" width="6.23" height="7.38"/>
<rect x="448.57" y="38.93" width="6.23" height="7.38"/>
<rect x="437.63" y="38.93" width="6.23" height="7.38"/>
<rect x="426.69" y="38.93" width="6.23" height="7.38"/>
<rect x="415.75" y="38.93" width="6.23" height="7.38"/>
<rect x="404.81" y="38.93" width="6.23" height="7.38"/>
<rect x="284.46" y="38.93" width="6.23" height="7.38"/>
<rect x="262.58" y="38.93" width="6.23" height="7.38"/>
<rect x="251.64" y="38.93" width="6.23" height="7.38"/>
<rect x="240.7" y="38.93" width="6.23" height="7.38"/>
<rect x="164.11" y="38.93" width="6.23" height="7.38"/>
<rect x="153.17" y="38.93" width="6.23" height="7.38"/>
<rect x="995.62" y="25.95" width="6.23" height="7.38"/>
<rect x="984.67" y="25.95" width="6.23" height="7.38"/>
<rect x="973.73" y="25.95" width="6.23" height="7.38"/>
<rect x="525.16" y="25.95" width="6.23" height="7.38"/>
<rect x="514.22" y="25.95" width="6.23" height="7.38"/>
<rect x="503.28" y="25.95" width="6.23" height="7.38"/>
<rect x="492.34" y="25.95" width="6.23" height="7.38"/>
<rect x="481.4" y="25.95" width="6.23" height="7.38"/>
<rect x="470.46" y="25.95" width="6.23" height="7.38"/>
<rect x="459.51" y="25.95" width="6.23" height="7.38"/>
<rect x="448.57" y="25.95" width="6.23" height="7.38"/>
<rect x="437.63" y="25.95" width="6.23" height="7.38"/>
<rect x="426.69" y="25.95" width="6.23" height="7.38"/>
<rect x="415.75" y="25.95" width="6.23" height="7.38"/>
<rect x="404.81" y="25.95" width="6.23" height="7.38"/>
<rect x="393.87" y="25.95" width="6.23" height="7.38"/>
<rect x="382.93" y="25.95" width="6.23" height="7.38"/>
<rect x="371.99" y="25.95" width="6.23" height="7.38"/>
<rect x="361.05" y="25.95" width="6.23" height="7.38"/>
<rect x="350.11" y="25.95" width="6.23" height="7.38"/>
<rect x="306.34" y="25.95" width="6.23" height="7.38"/>
<rect x="295.4" y="25.95" width="6.23" height="7.38"/>
<rect x="284.46" y="25.95" width="6.23" height="7.38"/>
<rect x="273.52" y="25.95" width="6.23" height="7.38"/>
<rect x="164.11" y="25.95" width="6.23" height="7.38"/>
<rect x="973.73" y="12.98" width="6.23" height="7.38"/>
<rect x="678.33" y="12.98" width="6.23" height="7.38"/>
<rect x="667.39" y="12.98" width="6.23" height="7.38"/>
<rect x="656.45" y="12.98" width="6.23" height="7.38"/>
<rect x="645.51" y="12.98" width="6.23" height="7.38"/>
<rect x="525.16" y="12.98" width="6.23" height="7.38"/>
<rect x="514.22" y="12.98" width="6.23" height="7.38"/>
<rect x="503.28" y="12.98" width="6.23" height="7.38"/>
<rect x="492.34" y="12.98" width="6.23" height="7.38"/>
<rect x="481.4" y="12.98" width="6.23" height="7.38"/>
<rect x="470.46" y="12.98" width="6.23" height="7.38"/>
<rect x="459.51" y="12.98" width="6.23" height="7.38"/>
<rect x="448.57" y="12.98" width="6.23" height="7.38"/>
<rect x="437.63" y="12.98" width="6.23" height="7.38"/>
<rect x="426.69" y="12.98" width="6.23" height="7.38"/>
<rect x="415.75" y="12.98" width="6.23" height="7.38"/>
<rect x="404.81" y="12.98" width="6.23" height="7.38"/>
<rect x="393.87" y="12.98" width="6.23" height="7.38"/>
<rect x="382.93" y="12.98" width="6.23" height="7.38"/>
<rect x="371.99" y="12.98" width="6.23" height="7.38"/>
<rect x="361.05" y="12.98" width="6.23" height="7.38"/>
<rect x="317.28" y="12.98" width="6.23" height="7.38"/>
<rect x="306.34" y="12.98" width="6.23" height="7.38"/>
<rect x="295.4" y="12.98" width="6.23" height="7.38"/>
<rect x="284.46" y="12.98" width="6.23" height="7.38"/>
<rect x="273.52" y="12.98" width="6.23" height="7.38"/>
<rect x="262.58" y="12.98" width="6.23" height="7.38"/>
<rect x="218.82" y="12.98" width="6.23" height="7.38"/>
<rect x="514.22" width="6.23" height="7.38"/>
<rect x="503.28" width="6.23" height="7.38"/>
<rect x="492.34" width="6.23" height="7.38"/>
<rect x="481.4" width="6.23" height="7.38"/>
<rect x="470.46" width="6.23" height="7.38"/>
<rect x="459.51" width="6.23" height="7.38"/>
<rect x="448.57" width="6.23" height="7.38"/>
<rect x="437.63" width="6.23" height="7.38"/>
<rect x="426.69" width="6.23" height="7.38"/>
<rect x="361.05" width="6.23" height="7.38"/>
<rect x="350.11" width="6.23" height="7.38"/>
<rect x="339.17" width="6.23" height="7.38"/>
<rect x="328.22" width="6.23" height="7.38"/>
<rect x="317.28" width="6.23" height="7.38"/>
<rect x="306.34" width="6.23" height="7.38"/>
<rect x="295.4" width="6.23" height="7.38"/>
</svg>
   